<svg width="480" height="480" viewBox="0 0 480 480" fill="none" xmlns="http://www.w3.org/2000/svg">
<ellipse cx="388.824" cy="415.823" rx="25.451" ry="7.76471" fill="#EFF5FF"/>
<path d="M428.13 50.3565C426.774 39.4569 417.573 29.3038 406.593 29.2914C400.114 29.2914 393.947 32.6757 389.52 37.4163C387.58 39.4818 386.262 40.9997 385.192 42.555C384.459 40.8255 383.452 39.0836 381.959 36.6698C378.552 31.1577 373.18 26.6162 366.814 25.3471C356.058 23.1945 345.028 31.3444 341.559 41.7587C338.09 52.1731 340.974 63.869 346.682 73.2507C352.39 82.6323 362.201 94.8882 380.293 100.973C392.765 99.3675 409.465 88.3061 416.901 80.2309C424.35 72.1557 429.473 61.2561 428.13 50.3565Z" fill="#B2CAF2"/>
<path d="M424.164 69.9284C424.164 69.9408 424.04 69.9408 423.803 69.9284C423.517 69.9159 423.169 69.891 422.746 69.8662C421.764 69.7791 420.396 69.6795 418.68 69.5302C415.099 69.2067 410.013 68.7339 403.759 68.1615L404.032 67.9998C402.229 72.6906 400.128 78.1902 397.815 84.2248L397.442 85.2077L397.193 84.1875C395.303 76.3114 393.177 67.5021 390.938 58.2075C390.254 55.3333 389.57 52.4964 388.911 49.7342L389.546 49.8586C385.492 55.4329 381.649 60.7209 378.155 65.5237L378.043 65.673L377.857 65.6482C367.126 64.5283 358.073 63.5827 351.632 62.9108C348.486 62.5624 345.987 62.2762 344.208 62.0772C343.388 61.9776 342.741 61.8905 342.244 61.8283C341.796 61.7661 341.572 61.7288 341.572 61.7039C341.572 61.6914 341.809 61.6914 342.256 61.7163C342.754 61.7537 343.413 61.8034 344.233 61.8656C346.024 62.0274 348.523 62.2389 351.669 62.5126C358.11 63.1223 367.175 63.9809 377.919 64.9887L377.621 65.1256C381.102 60.2979 384.92 55.0098 388.961 49.4107L389.409 48.7886L389.583 49.5351C390.242 52.2974 390.926 55.1342 391.61 58.0085C393.823 67.303 395.925 76.1247 397.802 84.0008L397.181 83.9635C399.531 77.9538 401.682 72.4666 403.522 67.7883L403.597 67.6016L403.796 67.6265C410.038 68.2984 415.111 68.8459 418.693 69.2191C420.409 69.4182 421.752 69.58 422.746 69.692C423.169 69.7542 423.517 69.7915 423.803 69.8288C424.052 69.891 424.176 69.9159 424.164 69.9284Z" fill="white" stroke="white" stroke-width="2" stroke-linejoin="round"/>
<path d="M133.823 281.314L67.4926 313.262C66.4646 313.759 65.2311 313.322 64.7428 312.293L20.2053 219.734C19.7084 218.705 20.1453 217.471 21.1733 216.982L87.5041 185.035C88.5321 184.538 89.7657 184.975 90.2539 186.004L134.783 278.571C135.28 279.583 134.851 280.817 133.823 281.314Z" fill="#E0E0E0"/>
<path d="M86.4426 188.075L24.2095 218.046L67.322 307.677L129.555 277.706L86.4426 188.075Z" fill="#FAFAFA"/>
<path d="M68.6326 198.313C66.0969 196.35 62.6703 195.99 59.7834 197.387L57.873 193.598C56.4767 190.701 53.0072 189.484 50.1117 190.881C47.2162 192.278 45.9998 195.75 47.3961 198.647L49.3065 202.624L47.9786 203.293C45.1517 204.707 43.3527 207.588 43.3099 210.751L43.2842 212.722L70.3802 199.676L68.6326 198.313ZM54.1723 198.93C52.6132 199.676 50.7456 199.024 49.9918 197.464C49.2465 195.904 49.8976 194.035 51.4567 193.281C53.0158 192.535 54.8833 193.187 55.6371 194.747C56.3824 196.316 55.7228 198.184 54.1723 198.93Z" fill="#EBEBEB"/>
<path d="M53.3844 219.631C53.4358 219.742 49.7008 221.654 45.0406 223.899C40.3804 226.145 36.5597 227.877 36.5083 227.765C36.4569 227.654 40.192 225.742 44.8522 223.497C49.5038 221.242 53.3245 219.519 53.3844 219.631Z" fill="#E0E0E0"/>
<path d="M46.0072 226.686C46.0586 226.797 44.2853 227.766 42.0409 228.846C39.7965 229.926 37.929 230.715 37.8776 230.603C37.8262 230.492 39.5994 229.523 41.8439 228.443C44.0883 227.363 45.9558 226.574 46.0072 226.686Z" fill="#E0E0E0"/>
<path d="M89.4669 215.525C89.5183 215.636 79.05 220.788 66.0802 227.037C53.1105 233.286 42.5565 238.257 42.5051 238.146C42.4537 238.035 52.922 232.883 65.8918 226.634C78.8615 220.385 89.4155 215.413 89.4669 215.525Z" fill="#E0E0E0"/>
<path d="M91.6256 220.008C91.677 220.119 81.2087 225.271 68.2389 231.52C55.2692 237.769 44.7152 242.74 44.6638 242.629C44.6124 242.517 55.0807 237.366 68.0504 231.117C81.0116 224.868 91.5742 219.896 91.6256 220.008Z" fill="#E0E0E0"/>
<path d="M93.7823 224.491C93.8337 224.603 83.3654 229.754 70.3956 236.003C57.4259 242.252 46.8719 247.224 46.8205 247.112C46.7691 247.001 57.2374 241.849 70.2072 235.6C83.1684 229.351 93.7224 224.38 93.7823 224.491Z" fill="#E0E0E0"/>
<path d="M95.9342 228.966C95.9856 229.077 85.5173 234.229 72.5475 240.478C59.5777 246.727 49.0238 251.698 48.9724 251.587C48.921 251.475 59.3893 246.324 72.359 240.075C85.3288 233.835 95.8828 228.854 95.9342 228.966Z" fill="#E0E0E0"/>
<path d="M98.0929 233.449C98.1443 233.56 87.6759 238.712 74.7062 244.961C61.7364 251.209 51.1824 256.181 51.131 256.07C51.0796 255.958 61.548 250.807 74.5177 244.558C87.4789 238.309 98.0415 233.337 98.0929 233.449Z" fill="#E0E0E0"/>
<path d="M100.241 237.932C100.293 238.043 89.8244 243.195 76.8546 249.444C63.8849 255.692 53.3309 260.664 53.2795 260.553C53.2281 260.441 63.6964 255.29 76.6662 249.041C89.6359 242.792 100.19 237.82 100.241 237.932Z" fill="#E0E0E0"/>
<path d="M78.7074 253.284C78.7245 253.31 78.4076 253.498 77.825 253.807C77.1568 254.15 76.3259 254.578 75.3407 255.084C73.2334 256.147 70.3122 257.578 67.0654 259.139C63.8187 260.699 60.8804 262.096 58.7388 263.082C57.7279 263.536 56.8798 263.922 56.1945 264.23C55.5863 264.496 55.2436 264.625 55.235 264.599C55.2179 264.573 55.5349 264.385 56.1174 264.076C56.7856 263.733 57.6165 263.304 58.6017 262.799C60.7091 261.736 63.6303 260.304 66.877 258.744C70.1151 257.184 73.062 255.796 75.2037 254.801C76.2145 254.347 77.0626 253.961 77.7479 253.653C78.3562 253.387 78.6988 253.25 78.7074 253.284Z" fill="#E0E0E0"/>
<path d="M86.1164 203.361C86.1678 203.473 84.5315 204.373 82.4499 205.376C80.3682 206.379 78.6463 207.099 78.5949 206.987C78.5435 206.876 80.1797 205.976 82.2614 204.973C84.3345 203.97 86.065 203.25 86.1164 203.361Z" fill="#E0E0E0"/>
<path d="M72.7356 268.182C72.787 268.293 70.1057 269.699 66.7305 271.319C63.3638 272.939 60.5883 274.165 60.5369 274.054C60.4855 273.942 63.1668 272.536 66.542 270.916C69.9087 269.296 72.6757 268.07 72.7356 268.182Z" fill="#E0E0E0"/>
<path d="M75.0996 272.056C75.151 272.168 72.4183 273.591 69.0003 275.245C65.5736 276.891 62.7552 278.142 62.7038 278.031C62.6524 277.919 65.3852 276.496 68.8118 274.842C72.2213 273.196 75.0397 271.945 75.0996 272.056Z" fill="#E0E0E0"/>
<path d="M107.816 250.541C107.868 250.652 106.591 251.381 104.964 252.161C103.336 252.941 101.974 253.49 101.922 253.378C101.871 253.267 103.147 252.538 104.775 251.758C106.394 250.97 107.756 250.429 107.816 250.541Z" fill="#E0E0E0"/>
<path d="M109.778 254.098C109.829 254.21 108.553 254.938 106.925 255.718C105.297 256.498 103.935 257.047 103.884 256.936C103.832 256.824 105.109 256.096 106.736 255.316C108.364 254.536 109.726 253.987 109.778 254.098Z" fill="#E0E0E0"/>
<path d="M71.4591 279.068C71.5105 279.18 70.2854 279.883 68.7092 280.637C67.133 281.391 65.8223 281.914 65.7623 281.803C65.7109 281.691 66.9359 280.988 68.5122 280.234C70.0884 279.48 71.4077 278.957 71.4591 279.068Z" fill="#E0E0E0"/>
<path d="M112.04 258.273C112.091 258.384 111.183 258.933 110.001 259.499C108.819 260.064 107.825 260.433 107.774 260.321C107.722 260.21 108.63 259.661 109.812 259.096C110.986 258.53 111.98 258.161 112.04 258.273Z" fill="#E0E0E0"/>
<path d="M70.0274 291.643C70.0189 291.635 70.1045 291.575 70.2673 291.463C70.4558 291.335 70.6956 291.18 70.9869 290.983C71.6637 290.546 72.5974 289.954 73.7539 289.209C76.1954 287.674 79.6134 285.531 83.6996 282.96L83.8967 282.84L83.9823 283.054C84.4278 284.203 84.5135 285.557 84.0937 286.834C83.6996 288.103 82.7231 289.303 81.3524 289.8C80.016 290.297 78.3713 290.237 77.112 289.32C75.8356 288.42 75.313 286.671 75.6899 285.146C75.8356 284.571 76.1097 284.031 76.5123 283.586C76.6065 283.474 76.7179 283.371 76.8293 283.277C76.9406 283.183 77.052 283.088 77.2148 283.011C77.369 282.934 77.626 282.908 77.8144 283.028C77.9943 283.14 78.08 283.294 78.1571 283.423C78.6882 284.417 78.9709 285.514 79.0309 286.594C79.0908 287.674 78.9195 288.754 78.5426 289.732C78.1742 290.7 77.5917 291.626 76.7008 292.175C75.8013 292.749 74.6191 292.637 73.8053 292.106C72.9743 291.592 72.3832 290.812 72.092 289.954C71.5352 288.223 71.8864 286.543 72.1177 285.12L72.1691 284.794L72.3918 285.043C73.4112 286.191 73.891 287.554 74.028 288.737C74.1736 289.937 73.9938 290.975 73.7453 291.78C73.4883 292.586 73.1371 293.143 72.8801 293.503C72.7516 293.683 72.6317 293.803 72.5631 293.889C72.486 293.975 72.4518 294.018 72.4432 294.009C72.3832 293.975 73.1028 293.315 73.574 291.729C73.7967 290.94 73.9509 289.929 73.7796 288.772C73.6254 287.632 73.1457 286.329 72.1605 285.257L72.4346 285.18C72.2119 286.611 71.9121 288.249 72.4432 289.843C72.7173 290.615 73.2742 291.326 74.0109 291.78C74.7476 292.235 75.7242 292.32 76.4866 291.832C77.2576 291.352 77.8059 290.503 78.14 289.586C78.4912 288.669 78.6454 287.649 78.594 286.629C78.5426 285.609 78.2685 284.571 77.7716 283.646C77.7116 283.534 77.6431 283.448 77.5917 283.423C77.5403 283.397 77.4975 283.388 77.4032 283.431C77.2319 283.526 77.0006 283.714 76.8464 283.894C76.5037 284.271 76.2553 284.751 76.1268 285.257C75.7842 286.629 76.2553 288.18 77.369 288.969C78.4741 289.774 79.9818 289.852 81.1982 289.397C82.4318 288.952 83.3227 287.88 83.6996 286.706C84.0937 285.531 84.0337 284.263 83.6225 283.2L83.9052 283.294C79.7847 285.806 76.341 287.906 73.8738 289.406C72.6831 290.117 71.7407 290.683 71.0469 291.095C70.7385 291.266 70.4986 291.412 70.293 291.523C70.1302 291.609 70.036 291.652 70.0274 291.643Z" fill="#E0E0E0"/>
<path d="M114.516 270.033C114.533 270.042 114.507 270.325 114.37 270.839C114.302 271.096 114.19 271.413 113.985 271.748C113.77 272.082 113.419 272.416 112.905 272.571C112.657 272.639 112.357 272.648 112.074 272.545C111.792 272.442 111.552 272.228 111.363 271.988C110.995 271.491 110.738 270.933 110.404 270.35C109.761 269.168 109.042 267.865 108.271 266.459L108.665 266.365C108.596 268.328 108.519 270.479 108.442 272.725C108.425 273.256 108.399 273.788 108.382 274.311L108.348 275.194L107.962 274.396C106.789 271.988 105.701 269.742 104.741 267.779L105.101 267.745C104.433 270.162 104.296 272.262 104.287 273.728C104.287 275.194 104.39 276.025 104.339 276.034C104.321 276.034 104.27 275.828 104.219 275.442C104.167 275.048 104.099 274.474 104.073 273.736C104.013 272.262 104.099 270.128 104.741 267.65L104.87 267.153L105.101 267.607C106.069 269.562 107.183 271.799 108.373 274.199L107.954 274.285C107.971 273.762 107.997 273.239 108.014 272.699C108.099 270.453 108.185 268.31 108.271 266.339L108.305 265.567L108.665 266.245C109.41 267.659 110.104 268.979 110.738 270.162C111.055 270.745 111.312 271.336 111.629 271.773C111.946 272.228 112.434 272.425 112.871 272.296C113.779 272.056 114.096 271.233 114.267 270.77C114.413 270.299 114.49 270.025 114.516 270.033Z" fill="#E0E0E0"/>
<path d="M114.421 266.819C114.49 266.922 110.952 269.451 106.523 272.459C102.094 275.477 98.4445 277.834 98.376 277.731C98.3074 277.628 101.837 275.1 106.274 272.091C110.703 269.082 114.353 266.716 114.421 266.819Z" fill="#E0E0E0"/>
<path d="M118.764 267.573C118.841 267.668 116.254 270.025 112.973 272.845C109.692 275.665 106.977 277.877 106.891 277.782C106.814 277.688 109.401 275.331 112.682 272.511C115.963 269.69 118.687 267.479 118.764 267.573Z" fill="#E0E0E0"/>
<path d="M29.4902 346.156L107.403 375.035L173.091 385.081L94.9986 346.988L29.4902 346.156Z" fill="#263238"/>
<path d="M62.8316 377.299C62.2148 373.15 60.7928 369.113 58.6854 365.487C58.2742 364.775 57.8202 364.064 57.6232 363.267C57.4176 362.469 57.5118 361.544 58.0601 360.944C59.0624 359.855 60.887 360.335 62.1206 361.158C64.6649 362.864 66.3696 365.607 67.3633 368.504C68.3656 371.401 68.7254 374.47 69.0766 377.513" fill="#FFBE9D"/>
<path d="M93.1998 369.875H89.3277C88.5567 369.061 87.3831 368.341 85.9268 367.921C85.0359 367.664 84.1535 368.144 83.3654 368.915C85.0958 366.061 86.9633 362.915 87.3231 362.058C88.017 360.386 86.4836 359.126 83.9736 359.126C81.4636 359.126 70.447 374.753 70.447 374.753C70.447 374.753 77.2917 362.186 77.9599 360.266C79.6218 355.466 74.3705 355.106 72.4687 357.42C70.1044 360.292 60.5527 374.753 60.5527 374.753C60.5527 374.753 58.7365 377.684 59.9958 380.47C61.2551 383.264 64.8788 382.142 64.8788 382.142C64.8788 382.142 64.8531 384.585 67.4402 386.025C70.2414 387.585 73.9165 385.776 73.9165 385.776L88.1712 388.982C88.1712 388.982 90.4328 388.75 93.3283 388.468C100.55 387.748 106.358 382.21 107.412 375.027L93.1998 369.875Z" fill="#FFBE9D"/>
<path d="M83.5959 368.701C83.7586 368.795 81.8569 371.787 79.3983 375.361C78.1647 377.153 77.0253 378.755 76.1858 379.904C75.3463 381.053 74.7895 381.747 74.7466 381.713C74.6952 381.678 75.1492 380.924 75.9288 379.724C76.7084 378.533 77.8049 376.895 79.0385 375.104C80.272 373.312 81.4028 371.701 82.2252 370.544C82.5936 370.038 82.9191 369.592 83.2104 369.181C83.4502 368.864 83.5616 368.709 83.5959 368.701Z" fill="#EB996E"/>
<path d="M82.7472 384.61C82.6872 384.576 83.167 383.676 84.0151 382.278C84.8546 380.873 86.0539 378.952 87.3732 376.835C88.0242 375.772 88.6581 374.761 89.1807 373.826C89.7204 372.926 89.6861 371.941 89.4977 371.178C89.0779 369.626 88.2041 368.958 88.2812 368.906C88.2983 368.889 88.5211 369.026 88.838 369.369C89.1464 369.712 89.5576 370.278 89.8061 371.092C90.0545 371.881 90.1316 373.012 89.5491 374.015C89.0351 374.984 88.4183 376.004 87.7587 377.067C86.4394 379.192 85.1973 381.078 84.2806 382.441C83.3554 383.804 82.7986 384.636 82.7472 384.61Z" fill="#EB996E"/>
<path d="M90.2367 386.033C90.1767 386.016 90.4166 385.141 90.9906 383.804C91.299 383.101 91.6416 382.321 92.01 381.481C92.3783 380.607 92.8067 379.647 93.0551 378.601C93.3121 377.59 93.1408 376.51 92.6011 375.815C92.3441 375.472 91.9586 375.267 91.5817 375.087C91.2133 374.915 90.8449 374.804 90.5194 374.787C89.8769 374.821 89.3372 375.172 88.986 375.327C88.6262 375.507 88.412 375.592 88.4035 375.567C88.3863 375.541 88.5662 375.404 88.9003 375.181C89.0717 375.069 89.2773 374.932 89.5428 374.795C89.8084 374.667 90.0996 374.495 90.5194 374.478C90.922 374.469 91.3247 374.581 91.7359 374.752C92.1299 374.924 92.5839 375.138 92.9266 375.558C93.5862 376.381 93.7661 377.581 93.492 378.704C93.2264 379.81 92.781 380.778 92.3869 381.653C91.9843 382.527 91.5988 383.29 91.2818 383.941C90.6393 385.227 90.2967 386.05 90.2367 386.033Z" fill="#EB996E"/>
<path d="M92.8672 372.532C92.8758 372.506 93.0985 372.558 93.4754 372.712C93.8524 372.866 94.3749 373.149 94.966 373.587C96.1311 374.444 97.5274 376.098 98.0329 378.327C98.5297 380.555 97.9643 382.647 97.2704 383.924C96.9278 384.576 96.568 385.047 96.2938 385.347C96.0197 385.647 95.8398 385.793 95.8227 385.767C95.7627 385.716 96.3966 385.064 96.9877 383.779C97.5874 382.51 98.0586 380.521 97.596 378.421C97.1248 376.321 95.8484 374.718 94.769 373.827C93.681 372.927 92.8329 372.609 92.8672 372.532Z" fill="#EB996E"/>
<path d="M67.7653 364.338C67.8681 364.407 66.4204 366.721 64.5357 369.507C62.6511 372.293 61.0406 374.496 60.9378 374.427C60.835 374.358 62.2827 372.044 64.1674 369.258C66.052 366.472 67.6625 364.269 67.7653 364.338Z" fill="#EB996E"/>
<path d="M160.197 355.148L151.288 353.125L142.73 345.059C141.694 344.082 140.34 343.499 138.918 343.413L123.353 342.513C121.802 342.428 120.269 342.933 119.086 343.936L107.958 353.348L156.505 377.032L163.17 377.624L160.197 355.148Z" fill="#FFBE9D"/>
<path d="M133.812 350.982C133.794 351.051 132.655 350.845 130.813 350.605C128.997 350.408 126.324 350.151 123.763 351.334C122.487 351.908 121.39 352.705 120.405 353.434C119.42 354.171 118.537 354.857 117.758 355.388C116.978 355.92 116.31 356.288 115.83 356.511C115.351 356.726 115.068 356.82 115.059 356.794C115.025 356.726 116.087 356.254 117.569 355.131C118.315 354.583 119.171 353.871 120.148 353.108C121.133 352.354 122.238 351.522 123.575 350.931C124.894 350.305 126.299 350.082 127.549 350.039C128.809 350.005 129.922 350.142 130.848 350.288C131.773 350.442 132.518 350.605 133.023 350.734C133.537 350.871 133.812 350.957 133.812 350.982Z" fill="#EB996E"/>
<path d="M137 359.658C136.975 359.726 136.366 359.452 135.321 359.341C134.285 359.221 132.82 359.349 131.321 359.898C129.821 360.455 128.562 361.227 127.654 361.784C126.746 362.341 126.172 362.684 126.138 362.632C126.104 362.581 126.609 362.152 127.474 361.527C128.348 360.909 129.599 360.069 131.158 359.486C132.726 358.912 134.285 358.826 135.355 359.032C136.452 359.229 137.026 359.624 137 359.658Z" fill="#EB996E"/>
<path d="M157.037 361.098C156.925 361.166 155.675 359.306 154.021 357.095C152.376 354.875 150.946 353.143 151.049 353.057C151.134 352.98 152.719 354.592 154.381 356.829C156.043 359.058 157.139 361.038 157.037 361.098Z" fill="#EB996E"/>
<path d="M132.521 343.448L152.259 325.052C153.115 324.255 153.047 322.884 152.122 322.172C151.402 321.624 150.391 321.658 149.714 322.267L126.576 343.036" fill="#B2CAF2"/>
<path opacity="0.3" d="M132.521 343.448L152.259 325.052C153.115 324.255 153.047 322.884 152.122 322.172C151.402 321.624 150.391 321.658 149.714 322.267L126.576 343.036" fill="black"/>
<path d="M382.804 410.784C362.141 398.123 356.093 372.665 355.476 349.487C355.374 345.621 354.705 341.575 356.333 338.077C357.969 334.58 362.107 332.008 365.662 333.423C368.609 334.597 370.057 337.863 371.83 340.52C374.186 344.061 377.544 346.906 381.399 348.621C383.935 349.752 387.019 350.344 389.366 348.861C392.587 346.821 392.698 342.2 392.441 338.36C391.961 331.203 391.49 324.054 391.011 316.896C390.754 313.056 390.505 309.139 391.482 305.419C392.458 301.698 394.891 298.158 398.481 296.915C402.07 295.672 406.713 297.507 407.707 301.218C408.118 302.761 407.904 304.407 408.101 305.993C408.306 307.579 409.154 309.302 410.688 309.653C412.247 310.013 413.72 308.83 414.8 307.639C418.526 303.524 420.916 298.364 423.127 293.246C425.337 288.129 427.47 282.9 430.811 278.451C434.152 274.003 438.915 270.351 444.397 269.708C449.871 269.065 455.936 272.108 457.65 277.423C459.372 282.754 456.545 288.438 453.375 293.024C448.672 299.83 442.992 305.941 436.567 311.11C435.411 312.045 434.152 313.047 433.775 314.496C433.098 317.111 435.677 319.502 438.246 320.188C441.168 320.968 444.252 320.488 447.267 320.659C450.283 320.831 453.598 321.954 454.9 324.714C456.707 328.545 453.675 332.857 450.608 335.746C444.474 341.532 437.347 346.238 429.646 349.598C426.887 350.798 423.966 351.887 421.816 354.012C419.657 356.138 418.492 359.67 420.034 362.293C421.576 364.916 425.157 365.567 428.078 364.839C430.999 364.11 433.552 362.344 436.302 361.11C441.459 358.804 448.287 358.753 451.936 363.107C454.334 365.97 454.78 370.136 453.88 373.771C452.972 377.414 450.882 380.628 448.638 383.611C440.782 394.043 430.442 402.684 418.466 407.664C406.499 412.661 395.234 414.496 382.804 410.784Z" fill="#F5F5F5"/>
<path d="M387.893 395.92C390.591 384.04 394.626 371.268 399.303 358.058C400.485 354.758 401.65 351.501 402.807 348.286C403.963 345.08 405.111 341.9 406.422 338.866C409.026 332.771 411.99 327.114 414.971 321.834C417.953 316.545 420.977 311.642 423.829 307.073C426.699 302.513 429.457 298.304 432.13 294.584C437.459 287.118 442.453 281.606 446.042 277.971C447.833 276.146 449.263 274.774 450.248 273.857C450.72 273.42 451.097 273.077 451.371 272.82C451.628 272.588 451.765 272.477 451.773 272.485C451.782 272.494 451.662 272.622 451.422 272.871C451.156 273.137 450.797 273.497 450.343 273.96C449.392 274.911 447.987 276.308 446.231 278.16C442.71 281.854 437.784 287.392 432.533 294.875C429.894 298.604 427.17 302.813 424.326 307.381C421.491 311.959 418.492 316.87 415.537 322.151C412.581 327.431 409.634 333.071 407.056 339.132C405.754 342.157 404.623 345.303 403.467 348.518C402.319 351.732 401.154 354.99 399.971 358.29C395.294 371.49 391.251 384.228 388.526 396.066" fill="#E0E0E0"/>
<path d="M406.628 338.823C406.585 338.832 406.414 338.257 406.157 337.211C405.891 336.166 405.557 334.631 405.171 332.737C404.4 328.948 403.509 323.677 402.55 317.865C401.591 312.044 400.631 306.807 399.8 303.035C399.389 301.15 399.046 299.624 398.789 298.578C398.541 297.524 398.43 296.941 398.472 296.924C398.515 296.907 398.721 297.472 399.055 298.501C399.389 299.53 399.809 301.038 400.28 302.915C401.239 306.67 402.284 311.916 403.244 317.745C404.178 323.488 405.017 328.682 405.66 332.643C405.96 334.434 406.216 335.943 406.422 337.151C406.602 338.214 406.679 338.814 406.628 338.823Z" fill="#E0E0E0"/>
<path d="M455.405 326.616C455.405 326.668 454.712 326.788 453.452 326.968C452.193 327.156 450.368 327.422 448.132 327.817C443.644 328.579 437.476 329.848 430.742 331.545C424 333.251 417.97 335.06 413.644 336.491C411.476 337.194 409.737 337.811 408.529 338.223C407.33 338.643 406.653 338.857 406.636 338.814C406.619 338.771 407.261 338.471 408.435 337.966C409.609 337.468 411.331 336.783 413.481 336.011C417.781 334.451 423.812 332.565 430.571 330.842C437.33 329.145 443.532 327.945 448.055 327.311C450.317 326.976 452.15 326.788 453.427 326.685C454.694 326.599 455.405 326.565 455.405 326.616Z" fill="#E0E0E0"/>
<path d="M388.449 394.977C388.424 394.986 388.304 394.789 388.072 394.394C387.815 393.923 387.498 393.348 387.121 392.663C386.299 391.154 385.177 388.934 383.815 386.182C381.091 380.671 377.57 372.939 373.809 364.358C370.04 355.769 366.596 348.02 363.992 342.457C362.715 339.757 361.67 337.528 360.891 335.883C360.557 335.163 360.282 334.571 360.06 334.091C359.88 333.68 359.786 333.457 359.811 333.44C359.837 333.431 359.957 333.628 360.188 334.023C360.445 334.494 360.762 335.06 361.139 335.754C361.961 337.263 363.084 339.483 364.446 342.234C367.17 347.746 370.682 355.478 374.46 364.067C378.229 372.656 381.673 380.405 384.277 385.968C385.554 388.668 386.599 390.897 387.378 392.543C387.713 393.263 387.987 393.854 388.209 394.334C388.381 394.746 388.466 394.969 388.449 394.977Z" fill="#E0E0E0"/>
<path d="M452.734 369.878C452.742 369.904 452.52 370.007 452.1 370.187C451.594 370.393 450.978 370.641 450.232 370.941C448.51 371.618 446.18 372.536 443.353 373.641C437.545 375.922 429.553 379.17 420.729 382.762C411.906 386.362 403.87 389.534 398.011 391.694C395.081 392.774 392.699 393.631 391.046 394.18C390.284 394.428 389.65 394.634 389.136 394.805C388.699 394.943 388.459 395.003 388.45 394.977C388.442 394.951 388.665 394.848 389.084 394.668C389.581 394.463 390.198 394.214 390.952 393.914C392.674 393.237 395.004 392.328 397.831 391.214C403.639 388.934 411.631 385.685 420.464 382.093C429.287 378.493 437.314 375.322 443.173 373.161C446.103 372.081 448.485 371.224 450.138 370.676C450.901 370.427 451.534 370.213 452.048 370.05C452.485 369.913 452.725 369.853 452.734 369.878Z" fill="#E0E0E0"/>
<mask id="mask0" mask-type="alpha" maskUnits="userSpaceOnUse" x="26" y="37" width="434" height="377">
<path d="M460 196.686C460 316.283 363.048 413.235 243.451 413.235C123.854 413.235 26.9019 316.283 26.9019 196.686C26.9019 77.0897 156.043 37.3102 243.451 37.8876C326.792 38.4381 460 77.0897 460 196.686Z" fill="#C4C4C4"/>
</mask>
<g mask="url(#mask0)">
<path d="M414.696 147.568C411.176 156.397 405.53 170.669 402.943 177.226C402.181 179.164 403.123 181.35 405.051 182.112L429.157 191.722C431.093 192.493 433.286 191.55 434.057 189.613L445.75 160.228C447.464 155.934 445.365 151.065 441.073 149.351L442.795 145.031L427.007 138.739L425.379 142.828L425.319 142.802C421.07 141.267 416.367 143.376 414.696 147.568Z" fill="#F5F5F5"/>
<path d="M426.784 139.296L425.996 141.259L441.561 148.108L442.563 145.588L426.784 139.296Z" fill="#E0E0E0"/>
<path d="M442.41 146.985L426.005 140.444C425.157 140.11 424.746 139.141 425.08 138.293L426.639 134.375C427.162 133.055 428.652 132.421 429.971 132.944L444.689 138.807C445.999 139.33 446.642 140.821 446.119 142.141L444.56 146.059C444.218 146.907 443.258 147.319 442.41 146.985Z" fill="#EBEBEB"/>
<path d="M426.947 140.856C426.836 140.813 427.435 139.022 428.292 136.87C429.148 134.719 429.937 133.004 430.057 133.047C430.168 133.09 429.568 134.873 428.712 137.033C427.855 139.193 427.058 140.899 426.947 140.856Z" fill="#E0E0E0"/>
<path d="M429.028 141.687C428.917 141.644 429.516 139.861 430.373 137.701C431.23 135.541 432.018 133.835 432.138 133.878C432.249 133.921 431.649 135.704 430.793 137.864C429.927 140.024 429.139 141.73 429.028 141.687Z" fill="#E0E0E0"/>
<path d="M431.109 142.519C430.998 142.476 431.597 140.684 432.454 138.533C433.311 136.381 434.099 134.667 434.219 134.71C434.33 134.753 433.73 136.536 432.874 138.696C432.008 140.847 431.22 142.562 431.109 142.519Z" fill="#E0E0E0"/>
<path d="M433.191 143.341C433.079 143.299 433.679 141.507 434.536 139.356C435.392 137.195 436.18 135.49 436.3 135.533C436.412 135.575 435.812 137.358 434.955 139.518C434.09 141.679 433.302 143.393 433.191 143.341Z" fill="#E0E0E0"/>
<path d="M435.263 144.173C435.152 144.13 435.752 142.347 436.608 140.187C437.465 138.036 438.253 136.321 438.373 136.364C438.484 136.407 437.885 138.19 437.028 140.35C436.171 142.51 435.383 144.216 435.263 144.173Z" fill="#E0E0E0"/>
<path d="M437.345 145.004C437.233 144.961 437.833 143.17 438.69 141.018C439.546 138.858 440.335 137.152 440.455 137.195C440.566 137.238 439.966 139.021 439.11 141.181C438.253 143.333 437.465 145.047 437.345 145.004Z" fill="#E0E0E0"/>
<path d="M439.428 145.827C439.316 145.784 439.916 143.993 440.773 141.841C441.629 139.69 442.418 137.976 442.538 138.018C442.657 138.061 442.049 139.844 441.193 142.004C440.327 144.164 439.539 145.879 439.428 145.827Z" fill="#E0E0E0"/>
<path d="M441.509 146.658C441.398 146.616 441.998 144.824 442.854 142.672C443.711 140.512 444.499 138.807 444.619 138.849C444.73 138.892 444.131 140.675 443.274 142.835C442.409 144.995 441.621 146.701 441.509 146.658Z" fill="#E0E0E0"/>
<path d="M432.882 177.097L412.622 169.022C411.971 168.765 411.654 168.019 411.911 167.368L416.931 154.759C417.188 154.107 417.933 153.79 418.584 154.047L438.844 162.122C439.495 162.379 439.812 163.125 439.555 163.776L434.535 176.386C434.278 177.037 433.542 177.354 432.882 177.097Z" fill="#EBEBEB"/>
<path d="M432.96 175.94C432.96 175.931 432.986 175.846 433.046 175.683C433.114 175.494 433.2 175.263 433.303 174.98C433.551 174.337 433.885 173.446 434.305 172.34C435.196 170.042 436.447 166.811 437.972 162.885L438.074 163.116C432.609 160.956 425.713 158.222 418.234 155.256C418.166 155.282 418.783 155.016 418.526 155.136V155.145L418.517 155.162L418.508 155.187L418.483 155.239L418.44 155.35L418.354 155.565L418.183 155.993L417.84 156.85C417.609 157.425 417.386 157.99 417.163 158.548C416.718 159.671 416.273 160.776 415.836 161.865C414.97 164.034 414.131 166.125 413.334 168.114L413.223 167.848C418.988 170.188 423.897 172.185 427.409 173.608C429.131 174.32 430.502 174.886 431.487 175.297C431.941 175.486 432.301 175.64 432.583 175.76C432.823 175.863 432.952 175.923 432.96 175.94C432.969 175.948 432.84 175.914 432.6 175.82C432.326 175.717 431.966 175.58 431.53 175.417C430.544 175.04 429.165 174.508 427.452 173.848C423.888 172.46 418.911 170.505 413.06 168.225L412.872 168.148L412.949 167.96C413.737 165.971 414.568 163.871 415.424 161.702C415.853 160.613 416.298 159.508 416.744 158.385C416.966 157.819 417.189 157.253 417.42 156.687L417.763 155.83L417.934 155.402L418.02 155.187L418.063 155.076L418.089 155.025L418.097 154.999L418.106 154.982V154.973C417.849 155.085 418.457 154.819 418.397 154.845C425.867 157.836 432.755 160.605 438.203 162.791L438.366 162.859L438.297 163.022C436.687 166.965 435.359 170.205 434.416 172.511C433.962 173.591 433.603 174.457 433.346 175.083C433.234 175.348 433.14 175.563 433.063 175.743C433.003 175.871 432.96 175.94 432.96 175.94Z" fill="#E0E0E0"/>
<path d="M433.389 165.928C433.346 166.039 430.288 164.934 426.57 163.451C422.852 161.968 419.871 160.673 419.914 160.562C419.956 160.45 423.015 161.556 426.733 163.039C430.459 164.514 433.44 165.808 433.389 165.928Z" fill="#E0E0E0"/>
<path d="M432.479 168.217C432.436 168.328 429.378 167.223 425.66 165.74C421.942 164.257 418.961 162.962 419.004 162.851C419.047 162.74 422.105 163.845 425.823 165.328C429.541 166.803 432.522 168.106 432.479 168.217Z" fill="#E0E0E0"/>
<path d="M431.598 170.42C431.555 170.531 428.497 169.425 424.779 167.942C421.061 166.459 418.08 165.165 418.123 165.054C418.166 164.942 421.224 166.048 424.942 167.531C428.668 169.005 431.65 170.3 431.598 170.42Z" fill="#E0E0E0"/>
<path d="M440.216 148.862C440.174 148.974 436.841 147.757 432.781 146.137C428.72 144.516 425.465 143.111 425.508 142.999C425.551 142.888 428.883 144.105 432.944 145.725C437.013 147.337 440.268 148.742 440.216 148.862Z" fill="#E0E0E0"/>
<path d="M404.913 176.043C404.887 176.035 405.059 175.529 405.393 174.62C405.761 173.652 406.25 172.366 406.849 170.806C408.091 167.592 409.847 163.168 411.801 158.291C412.786 155.857 413.72 153.534 414.576 151.416C415.424 149.308 416.418 147.422 417.703 146.205C418.979 144.979 420.376 144.456 421.344 144.345C421.832 144.276 422.209 144.319 422.466 144.345C422.723 144.388 422.851 144.422 422.843 144.439C422.843 144.49 422.303 144.362 421.369 144.525C420.444 144.688 419.116 145.236 417.926 146.436C416.718 147.628 415.784 149.471 414.953 151.579C414.105 153.705 413.18 156.028 412.203 158.463C410.242 163.34 408.451 167.746 407.123 170.935C406.472 172.469 405.941 173.738 405.539 174.698C405.17 175.572 404.939 176.061 404.913 176.043Z" fill="white"/>
<path d="M432.001 191.559C431.975 191.585 431.641 191.302 431.05 190.787C430.759 190.53 430.399 190.213 429.962 189.87C429.525 189.527 429.054 189.107 428.48 188.704C427.366 187.856 425.987 186.93 424.394 185.996C422.792 185.087 420.976 184.17 419.006 183.373C417.027 182.593 415.082 182.01 413.292 181.573C411.493 181.161 409.856 180.878 408.469 180.733C407.775 180.63 407.149 180.604 406.593 180.561C406.036 180.51 405.565 180.493 405.171 180.476C404.391 180.441 403.954 180.415 403.954 180.381C403.954 180.347 404.382 180.321 405.171 180.304C405.565 180.287 406.044 180.278 406.601 180.313C407.158 180.338 407.8 180.338 408.494 180.424C409.899 180.536 411.561 180.784 413.377 181.178C415.193 181.598 417.164 182.181 419.168 182.97C421.164 183.776 422.998 184.71 424.599 185.653C426.193 186.622 427.572 187.582 428.669 188.464C429.234 188.885 429.697 189.322 430.125 189.69C430.553 190.05 430.896 190.385 431.17 190.667C431.727 191.225 432.027 191.542 432.001 191.559Z" fill="white"/>
<path d="M195.076 157.074C195.179 153.336 191.735 150.456 188.257 149.085C184.779 147.713 180.924 147.199 177.823 145.116C175.082 143.273 173.24 140.393 170.918 138.036C165.222 132.258 156.33 129.867 148.508 132.001C140.687 134.135 134.245 140.719 132.266 148.588C130.93 153.902 131.846 160.194 136.035 163.726C140.901 167.823 148.106 166.914 154.334 165.637C160.561 164.36 167.612 163.1 172.82 166.76C175.955 168.972 177.754 172.563 179.673 175.88C181.592 179.206 183.999 182.601 187.623 183.844C191.247 185.095 196.173 182.935 196.318 179.103" fill="#263238"/>
<path d="M194.827 159.122C194.416 162.251 196.678 165.054 198.931 167.265C201.184 169.477 203.728 171.817 204.131 174.954C204.593 178.614 201.929 182.215 202.7 185.823C203.188 188.112 204.97 189.878 206.05 191.952C207.566 194.867 207.643 198.398 206.718 201.544C205.793 204.699 204.311 211.736 202.117 214.188C196.061 220.959 186.424 226.805 177.566 228.846C168.716 230.877 159.516 230.894 150.453 230.337C143.034 229.883 134.493 230.226 128.317 220.008C125.113 214.719 123.528 207.682 121.823 201.733C120.358 196.615 119.09 191.129 120.615 186.029C121.506 183.055 123.288 180.414 124.17 177.431C125.267 173.711 124.864 169.734 125.301 165.885C126.252 157.545 131.426 149.804 138.759 145.724C146.092 141.652 155.396 141.361 162.977 144.961" fill="#263238"/>
<path d="M128.848 171.963C129.541 161.308 136.626 148.244 147.24 149.393L180.358 157.845C183.579 158.196 186.004 160.948 185.935 164.197L182.209 244.155C182.286 244.172 182.363 244.189 182.44 244.206C182.44 244.206 174.893 266.759 152.988 259.867C148.645 258.504 146.666 253.747 145.801 248.861L145.578 248.887C145.569 248.304 145.561 247.764 145.552 247.215C144.833 241.575 145.424 236.235 145.424 236.235C145.364 229.78 145.372 227.131 145.364 227.191C145.364 227.191 131.76 224.903 128.985 207.125C127.597 198.287 128.077 183.801 128.848 171.963Z" fill="#FFBE9D"/>
<path d="M134.183 182.669C134.14 183.869 135.117 184.907 136.376 184.975C137.627 185.044 138.68 184.127 138.732 182.927C138.775 181.727 137.798 180.689 136.547 180.621C135.28 180.544 134.226 181.461 134.183 182.669Z" fill="#263238"/>
<path d="M131.972 179.498C132.255 179.798 133.985 178.521 136.436 178.538C138.886 178.512 140.676 179.781 140.941 179.481C141.07 179.352 140.787 178.812 140.008 178.238C139.237 177.672 137.926 177.115 136.401 177.115C134.876 177.124 133.591 177.681 132.855 178.255C132.084 178.83 131.835 179.37 131.972 179.498Z" fill="#263238"/>
<path d="M158.263 182.669C158.22 183.869 159.196 184.907 160.456 184.975C161.706 185.044 162.76 184.127 162.803 182.927C162.846 181.727 161.869 180.689 160.618 180.621C159.359 180.544 158.305 181.461 158.263 182.669Z" fill="#263238"/>
<path d="M156.053 180.012C156.336 180.312 158.066 179.035 160.516 179.052C162.966 179.026 164.756 180.295 165.022 179.995C165.15 179.866 164.868 179.326 164.088 178.752C163.317 178.178 162.007 177.629 160.482 177.629C158.957 177.637 157.672 178.195 156.927 178.769C156.173 179.343 155.916 179.883 156.053 180.012Z" fill="#263238"/>
<path d="M147.117 198.176C147.126 198.039 145.61 197.773 143.143 197.447C142.517 197.379 141.926 197.259 141.823 196.83C141.678 196.376 141.943 195.707 142.243 194.978C142.834 193.461 143.451 191.875 144.102 190.212C146.689 183.432 148.557 177.852 148.282 177.749C148.008 177.646 145.687 183.064 143.108 189.844C142.483 191.515 141.892 193.11 141.326 194.636C141.087 195.347 140.675 196.153 140.992 197.096C141.164 197.567 141.618 197.901 142.02 198.013C142.423 198.133 142.774 198.141 143.083 198.159C145.567 198.296 147.109 198.313 147.117 198.176Z" fill="#263238"/>
<path d="M145.361 227.183C145.361 227.183 157.303 227.981 169.15 220.892C169.15 220.892 163.145 233.175 145.378 231.478L145.361 227.183Z" fill="#EB996E"/>
<path d="M148.145 204.082C149.027 202.916 150.578 202.282 152.103 202.453C153.165 202.573 154.236 203.088 154.887 203.954C155.529 204.819 155.666 206.054 155.075 206.877C154.416 207.802 153.028 208.017 151.863 207.682C150.698 207.348 149.687 206.577 148.736 205.805C148.471 205.591 148.205 205.368 148.042 205.076C147.879 204.785 147.845 204.408 148.051 204.168" fill="#EB996E"/>
<path d="M154.331 199.891C153.928 199.865 153.92 202.531 151.641 204.408C149.362 206.303 146.527 205.994 146.51 206.363C146.475 206.526 147.143 206.877 148.334 206.92C149.508 206.963 151.221 206.586 152.618 205.437C154.005 204.28 154.614 202.737 154.699 201.648C154.802 200.534 154.511 199.874 154.331 199.891Z" fill="#263238"/>
<path d="M154.967 175.717C155.206 176.386 157.656 176.077 160.526 176.429C163.405 176.72 165.726 177.569 166.103 176.977C166.274 176.694 165.872 176.06 164.938 175.417C164.013 174.774 162.531 174.157 160.8 173.96C159.078 173.771 157.494 174.037 156.449 174.466C155.395 174.877 154.855 175.4 154.967 175.717Z" fill="#263238"/>
<path d="M132.89 172.409C133.319 172.966 135.006 172.391 137.037 172.366C139.067 172.271 140.78 172.751 141.183 172.169C141.354 171.886 141.089 171.329 140.335 170.797C139.598 170.274 138.356 169.837 136.968 169.88C135.572 169.923 134.364 170.42 133.653 170.994C132.933 171.56 132.702 172.134 132.89 172.409Z" fill="#263238"/>
<path d="M192.753 216.288C187.87 217.273 182.55 215.773 178.901 212.379C175.251 208.984 173.367 203.79 173.992 198.844C174.54 194.481 176.896 190.041 175.38 185.909C173.384 180.449 165.734 178.769 163.704 173.317C162.522 170.154 163.584 166.442 162.247 163.339C160.988 160.425 157.921 158.736 154.932 157.656C151.942 156.576 148.746 155.83 146.236 153.876C143.727 151.922 142.167 148.244 143.786 145.51C157.03 147.096 170.086 150.276 182.584 154.939C185.48 156.019 188.53 157.322 190.234 159.902C192.05 162.628 191.956 166.151 191.811 169.425C191.065 185.378 190.32 201.33 189.575 217.282" fill="#263238"/>
<path d="M191.642 222.4C191.651 222.408 191.745 222.348 191.925 222.22C192.139 222.057 192.396 221.86 192.713 221.62C193.398 221.08 194.409 220.282 195.651 219.185C196.885 218.079 198.384 216.674 199.823 214.788C201.254 212.919 202.659 210.476 203.147 207.476C203.678 204.562 203.284 200.884 200.86 198.124C199.66 196.77 198.127 195.758 196.722 194.593C195.291 193.452 194.109 191.995 193.492 190.187C192.182 186.561 192.764 182.369 192.259 178.083C191.693 173.823 190.177 169.417 187.222 165.842C185.748 164.077 183.984 162.542 181.953 161.539C179.94 160.476 177.756 160.039 175.743 159.439C173.704 158.874 171.836 158.034 170.294 156.748C168.735 155.488 167.459 153.962 166.336 152.385C164.109 149.213 162.456 145.836 160.331 143.024C159.278 141.618 158.121 140.341 156.836 139.304C155.543 138.275 154.129 137.512 152.69 137.041C149.829 136.064 146.796 136.39 144.809 137.83C142.838 139.33 142.119 141.49 142.007 143.144C141.922 144.85 142.504 146.136 143.078 146.804C143.361 147.147 143.609 147.379 143.806 147.499C143.986 147.636 144.081 147.696 144.089 147.687C144.098 147.679 144.021 147.593 143.858 147.439C143.686 147.302 143.455 147.062 143.207 146.71C142.693 146.033 142.196 144.799 142.316 143.17C142.461 141.584 143.215 139.544 145.066 138.19C146.942 136.887 149.794 136.604 152.519 137.572C153.889 138.035 155.243 138.781 156.468 139.775C157.693 140.77 158.806 142.03 159.826 143.41C161.882 146.179 163.501 149.547 165.762 152.805C166.902 154.416 168.204 156.011 169.84 157.339C171.451 158.694 173.481 159.611 175.545 160.185C177.601 160.794 179.726 161.231 181.619 162.242C183.538 163.202 185.226 164.66 186.639 166.357C189.466 169.786 190.965 174.054 191.514 178.195C192.028 182.335 191.428 186.595 192.833 190.444C193.484 192.364 194.82 193.975 196.294 195.133C197.75 196.324 199.258 197.301 200.388 198.561C202.667 201.099 203.096 204.562 202.616 207.39C202.187 210.288 200.868 212.662 199.489 214.531C198.101 216.408 196.662 217.831 195.463 218.962C194.255 220.094 193.278 220.925 192.627 221.5C191.968 222.065 191.625 222.383 191.642 222.4Z" fill="#455A64"/>
<path d="M194.887 224.603C198.536 221.071 204.773 224.14 207.831 228.194C210.889 232.249 213.065 237.469 217.717 239.5C222.368 241.541 228.416 239.783 232.314 243.032C237.694 247.507 234.67 257.87 240.495 261.762C242.808 263.305 245.849 263.253 248.316 264.522C254.133 267.522 254.065 275.734 253.165 282.223C251.906 291.326 250.518 300.764 245.498 308.461C240.478 316.159 230.704 321.576 222.008 318.602C213.656 315.747 209.364 306.73 205.972 298.578C201.269 287.297 196.566 276.025 191.871 264.745C189.156 258.221 186.406 251.595 185.524 244.584C184.641 237.572 185.832 229.994 190.287 224.508" fill="#263238"/>
<path d="M197.226 216.828C199.881 216.511 201.903 219.76 201.2 222.34C200.507 224.92 198.022 226.643 195.504 227.526C194.09 228.023 192.565 228.323 191.1 228.032C189.636 227.74 188.239 226.772 187.768 225.349C187.271 223.857 187.657 222.846 188.985 222.014C190.732 220.926 191.752 220.068 193.131 219.305C195.247 218.14 195.118 217.985 197.226 216.828Z" fill="#B2CAF2"/>
<path d="M136.206 245.414L146.503 237.605L185.318 235.12L186.877 240.323L174.25 319.158L184.213 413.209H130.064L136.206 245.414Z" fill="#B2CAF2"/>
<g opacity="0.3">
<g opacity="0.3">
<path opacity="0.3" d="M177.762 379.839C176.528 378.519 174.49 376.693 172.682 376.659C159.721 376.376 146.477 375.073 133.507 374.791L132.471 413.227C135.572 407.758 138.51 402.066 139.324 395.826C139.684 393.1 140.138 389.843 142.622 388.677C144.027 388.017 145.672 388.274 147.197 388.574C151.883 389.5 156.534 390.708 161.297 391.009C166.06 391.309 171.046 390.606 175.046 388.008C176.417 387.117 177.694 385.96 178.336 384.451C178.987 382.942 178.884 381.039 177.762 379.839Z" fill="black"/>
</g>
</g>
<path d="M144.602 247L143.403 235.728C143.188 233.74 144.645 231.974 146.632 231.794L182.363 228.562C183.331 228.477 184.171 229.222 184.205 230.191L184.608 243.597L174.259 261.161L163.628 264.547H150.624L143.146 256.558L144.602 247Z" fill="#B2CAF2"/>
<path d="M179.33 239.303C179.321 239.337 178.816 239.251 177.899 239.157C176.983 239.071 175.646 238.994 174.002 239.088C172.357 239.183 170.412 239.457 168.279 239.911C166.146 240.357 163.824 240.991 161.366 241.583C158.907 242.183 156.534 242.663 154.333 242.834C152.131 243.014 150.127 242.851 148.499 242.44C146.871 242.046 145.646 241.42 144.858 240.923C144.464 240.666 144.173 240.451 143.984 240.297C143.796 240.134 143.702 240.048 143.719 240.04C143.744 240.006 144.147 240.323 144.944 240.777C145.749 241.223 146.966 241.78 148.567 242.131C150.161 242.5 152.131 242.62 154.29 242.423C156.457 242.234 158.804 241.737 161.255 241.146C163.705 240.546 166.035 239.928 168.185 239.5C170.335 239.063 172.305 238.814 173.976 238.763C175.638 238.703 176.991 238.831 177.908 238.968C178.37 239.046 178.722 239.114 178.962 239.174C179.21 239.251 179.33 239.286 179.33 239.303Z" fill="#263238"/>
<g opacity="0.3">
<g opacity="0.3">
<path opacity="0.3" d="M145.45 241.069C144.49 243.7 144.464 246.957 146.409 248.98C147.994 250.626 150.529 251.038 152.765 250.592C155.001 250.146 157.014 248.972 158.976 247.797C163.893 244.866 168.896 241.831 174.482 240.597C174.841 240.52 175.218 240.434 175.484 240.177C175.749 239.92 175.809 239.423 175.518 239.208C175.39 239.114 175.218 239.088 175.056 239.071C170.113 238.574 165.204 239.971 160.364 241.06C155.515 242.149 150.341 242.92 145.672 241.231" fill="black"/>
</g>
</g>
<path d="M152.278 231.434C152.312 231.494 151.584 231.674 151.053 232.599C150.487 233.508 150.521 235.042 150.564 236.705C150.658 240.04 151.207 242.706 151.078 242.731C151.018 242.74 150.813 242.088 150.598 241.008C150.384 239.928 150.179 238.403 150.127 236.714C150.11 235.865 150.102 235.068 150.179 234.322C150.256 233.585 150.47 232.908 150.796 232.428C151.121 231.948 151.507 231.656 151.806 231.528C152.089 231.408 152.269 231.408 152.278 231.434Z" fill="#263238"/>
<path d="M161.717 241.231C161.58 241.214 161.897 238.763 161.46 235.771C161.049 232.779 160.055 230.508 160.193 230.456C160.244 230.431 160.552 230.971 160.921 231.905C161.289 232.839 161.683 234.185 161.906 235.702C162.12 237.228 162.111 238.625 162.017 239.62C161.923 240.631 161.777 241.24 161.717 241.231Z" fill="#263238"/>
<path d="M173.222 229.514C173.265 229.488 173.59 229.968 173.907 230.842C174.216 231.708 174.464 232.994 174.379 234.417C174.284 235.84 173.865 237.074 173.445 237.897C173.025 238.72 172.631 239.148 172.597 239.123C172.468 239.063 173.779 237.143 173.942 234.382C174.13 231.639 173.085 229.557 173.222 229.514Z" fill="#263238"/>
<path d="M123.127 250.481C123.127 250.481 110.946 258.642 107.75 273.385C105.232 284.975 98.3442 346.195 98.3442 346.195L86.2739 369.708L94.1552 388.463C100.906 388.943 107.605 387.023 113.087 383.045L118.39 379.197L128.113 364.762L123.127 250.481Z" fill="#F2F2F2"/>
<path d="M143.781 239.672L123.127 250.481L118.252 266.51L113.909 312.961L122.082 367.41L107.741 413.038L132.473 413.227L133.064 386.474L135.531 299.906L137.955 244.755L143.781 239.672Z" fill="#F2F2F2"/>
<path d="M133.775 311.839C133.758 311.848 133.629 311.625 133.389 311.196C133.132 310.725 132.79 310.099 132.361 309.302C131.933 308.47 131.522 307.399 130.982 306.182C130.725 305.564 130.52 304.887 130.263 304.176C130.014 303.464 129.74 302.71 129.534 301.904C127.59 295.492 126.305 286.226 126.57 276.009C126.596 275.22 126.63 274.431 126.682 273.651L126.69 273.514L126.819 273.463C128.044 272.948 129.252 272.443 130.434 271.945L130.382 272.323C129.14 271.328 127.932 270.351 126.776 269.417L126.699 269.357V269.271C126.528 265.422 127.461 261.959 128.344 258.942C129.252 255.916 130.245 253.31 131.119 251.176C131.993 249.033 132.755 247.361 133.295 246.221C133.569 245.656 133.783 245.218 133.929 244.927C134.083 244.635 134.169 244.49 134.177 244.49C134.186 244.498 134.126 244.653 133.998 244.953C133.852 245.287 133.663 245.724 133.424 246.273C132.918 247.43 132.199 249.119 131.368 251.262C130.537 253.413 129.569 256.019 128.695 259.036C127.847 262.036 126.947 265.499 127.127 269.228L127.05 269.082C128.215 270.017 129.423 270.977 130.665 271.971L130.956 272.203L130.614 272.348C129.432 272.846 128.232 273.351 126.999 273.874L127.136 273.686C127.084 274.448 127.05 275.228 127.024 276.017C126.759 286.192 127.984 295.415 129.843 301.818C130.04 302.633 130.305 303.378 130.537 304.09C130.777 304.801 130.974 305.479 131.222 306.096C131.736 307.313 132.121 308.393 132.524 309.233C132.918 310.039 133.235 310.682 133.475 311.162C133.681 311.599 133.792 311.83 133.775 311.839Z" fill="#263238"/>
<path d="M117.576 344.369C117.559 344.369 117.491 344.137 117.379 343.7C117.26 343.211 117.097 342.568 116.891 341.754C116.677 340.905 116.429 339.868 116.197 338.651C115.957 337.434 115.64 336.062 115.401 334.519C115.126 332.985 114.844 331.296 114.612 329.479C114.338 327.662 114.15 325.716 113.927 323.659C113.559 319.544 113.31 315.01 113.302 310.252C113.327 305.487 113.593 300.952 113.979 296.838C114.201 294.789 114.398 292.834 114.681 291.017C114.921 289.2 115.212 287.511 115.486 285.977C115.735 284.434 116.052 283.063 116.3 281.845C116.54 280.628 116.788 279.591 117.011 278.751C117.217 277.937 117.379 277.285 117.508 276.805C117.628 276.359 117.696 276.128 117.714 276.136C117.731 276.136 117.688 276.376 117.602 276.831C117.499 277.319 117.362 277.971 117.191 278.794C117.003 279.642 116.78 280.688 116.557 281.905C116.334 283.123 116.034 284.503 115.812 286.037C115.555 287.571 115.281 289.26 115.058 291.077C114.792 292.886 114.612 294.84 114.398 296.88C114.038 300.978 113.781 305.504 113.764 310.252C113.773 315.001 114.004 319.527 114.355 323.625C114.561 325.673 114.741 327.619 114.998 329.436C115.212 331.254 115.478 332.942 115.735 334.477C115.957 336.02 116.249 337.4 116.471 338.617C116.686 339.834 116.908 340.88 117.097 341.728C117.268 342.551 117.405 343.203 117.499 343.691C117.551 344.12 117.585 344.36 117.576 344.369Z" fill="#263238"/>
<path d="M123.162 386.182C123.214 386.207 122.863 387.022 122.16 388.265C121.458 389.508 120.378 391.162 118.999 392.851C117.62 394.539 116.206 395.928 115.127 396.854C114.048 397.788 113.319 398.294 113.285 398.251C113.242 398.2 113.893 397.608 114.913 396.622C115.924 395.637 117.286 394.231 118.656 392.568C120.019 390.896 121.132 389.293 121.895 388.102C122.657 386.91 123.102 386.147 123.162 386.182Z" fill="#263238"/>
<path d="M218.06 249.161C226.883 252.581 233.428 260.158 235.519 269.39C242.269 299.195 253.834 338.831 254.014 351.62C254.245 367.907 247.126 379.059 237.84 381.116C230.49 382.745 163.894 379.093 163.894 379.093L160.775 354.26L214.71 346.314L207.326 305.024L214.633 247.832L218.06 249.161Z" fill="#F2F2F2"/>
<path d="M214.625 247.832L199.711 241.738L183.991 232.523L183.888 235.215C185.816 238.515 186.476 242.398 185.756 246.152L172.675 314.444L175.639 364.341L181.73 413.235H229.026L207.309 362.104L214.976 293.203L214.625 247.832Z" fill="#F2F2F2"/>
<path d="M228.445 381.519C228.445 381.527 228.334 381.544 228.119 381.561C227.888 381.587 227.571 381.613 227.168 381.656C226.329 381.75 225.087 381.742 223.485 381.784C220.272 381.802 215.621 381.716 209.821 381.527C198.231 381.141 182.091 380.361 163.879 379.307L163.699 379.299L163.673 379.119C163.305 376.161 162.911 373.041 162.508 369.869C161.84 364.512 161.18 359.283 160.555 354.286L160.529 354.072L160.743 354.037C177.217 351.637 191.617 349.546 201.923 348.046C207.054 347.317 211.166 346.734 214.019 346.331C215.415 346.143 216.503 345.997 217.266 345.885C217.617 345.843 217.899 345.808 218.105 345.783C218.294 345.765 218.388 345.757 218.396 345.757C218.396 345.765 218.302 345.783 218.114 345.817C217.908 345.851 217.634 345.903 217.274 345.963C216.512 346.083 215.432 346.254 214.036 346.477C211.192 346.914 207.088 347.54 201.966 348.32C191.66 349.854 177.268 352.006 160.803 354.466L160.992 354.226C161.617 359.232 162.277 364.452 162.954 369.809C163.348 372.972 163.742 376.093 164.11 379.059L163.905 378.861C182.117 379.933 198.248 380.764 209.83 381.227C215.621 381.459 220.272 381.587 223.485 381.621C225.087 381.604 226.329 381.639 227.168 381.579C227.571 381.562 227.888 381.544 228.119 381.527C228.334 381.519 228.445 381.519 228.445 381.519Z" fill="#263238"/>
<path d="M206.89 300.85C206.908 300.85 206.942 301.012 207.01 301.312C207.079 301.664 207.165 302.101 207.267 302.633C207.49 303.85 207.79 305.496 208.158 307.51C208.886 311.693 209.872 317.359 210.96 323.625C212.005 329.9 212.947 335.574 213.649 339.766C213.966 341.789 214.223 343.443 214.412 344.669C214.489 345.209 214.549 345.646 214.6 346.006C214.635 346.315 214.652 346.478 214.635 346.478C214.617 346.478 214.575 346.323 214.515 346.023C214.446 345.672 214.352 345.235 214.249 344.703C214.026 343.486 213.718 341.84 213.341 339.826C212.596 335.703 211.593 330.011 210.523 323.711C209.452 317.41 208.501 311.71 207.85 307.57C207.541 305.547 207.284 303.893 207.096 302.667C207.027 302.127 206.968 301.681 206.916 301.33C206.882 301.004 206.873 300.85 206.89 300.85Z" fill="#263238"/>
<path d="M190.853 237.323C190.862 237.323 190.879 237.375 190.913 237.486C190.947 237.623 190.999 237.786 191.05 237.983C191.162 238.429 191.35 239.072 191.53 239.929C191.915 241.626 192.361 244.129 192.669 247.275C192.978 250.421 193.115 254.227 192.952 258.487C192.806 262.747 192.352 267.462 191.71 272.459L191.693 272.614L191.539 272.639C189.988 272.931 188.335 273.231 186.664 273.548L186.827 273.248C187.101 273.994 187.392 274.799 187.615 275.639C189.2 281.434 188.506 287.289 187.058 292.192C185.585 297.138 183.34 301.235 181.327 304.535C179.297 307.835 177.455 310.381 176.187 312.139C175.562 312.987 175.065 313.656 174.705 314.144C174.543 314.35 174.414 314.521 174.311 314.659C174.217 314.77 174.174 314.83 174.166 314.822C174.157 314.813 174.2 314.753 174.277 314.624C174.371 314.479 174.491 314.307 174.637 314.084C174.979 313.587 175.451 312.901 176.05 312.027C177.267 310.244 179.066 307.673 181.062 304.364C183.032 301.055 185.234 296.966 186.664 292.063C188.078 287.203 188.746 281.426 187.187 275.742C186.973 274.928 186.681 274.131 186.416 273.402L186.322 273.145L186.579 273.094C188.249 272.785 189.902 272.485 191.453 272.194L191.273 272.382C191.924 267.393 192.395 262.696 192.567 258.453C192.755 254.21 192.652 250.421 192.378 247.284C192.113 244.146 191.71 241.643 191.376 239.938C191.222 239.08 191.059 238.429 190.973 237.983C190.93 237.778 190.905 237.615 190.87 237.478C190.853 237.383 190.845 237.323 190.853 237.323Z" fill="#263238"/>
<path d="M190.854 307.372V296.477C190.854 296.477 191 293.786 188.73 294.352C186.468 294.917 186.888 299.16 186.888 299.16C186.888 299.16 186.459 315.713 187.453 315.576C188.447 315.43 188.824 314.161 188.824 314.161V307.792L190.854 307.372Z" fill="#B2CAF2"/>
<path d="M200.26 308.05C200.26 308.17 197.648 308.273 194.427 308.273C191.206 308.273 188.593 308.17 188.593 308.05C188.593 307.93 191.206 307.827 194.427 307.827C197.648 307.827 200.26 307.93 200.26 308.05Z" fill="#263238"/>
<path d="M221.804 255.624C221.813 255.659 221.376 255.805 220.588 256.079C219.808 256.37 218.678 256.799 217.35 257.476C214.711 258.822 211.268 261.256 208.595 264.942C207.918 265.851 207.344 266.802 206.873 267.745C206.436 268.714 206.085 269.682 205.836 270.634C205.322 272.528 205.1 274.294 204.971 275.786C204.843 277.268 204.817 278.486 204.808 279.317C204.8 280.157 204.808 280.62 204.774 280.62C204.74 280.62 204.68 280.157 204.629 279.326C204.586 278.486 204.56 277.268 204.646 275.768C204.74 274.268 204.928 272.477 205.434 270.54C205.674 269.571 206.025 268.577 206.47 267.574C206.959 266.588 207.533 265.619 208.226 264.694C210.951 260.939 214.489 258.496 217.196 257.21C218.558 256.559 219.714 256.165 220.52 255.925C221.342 255.685 221.796 255.59 221.804 255.624Z" fill="#263238"/>
<path d="M29.8276 346.195L107.74 375.074L173.429 385.12L95.336 347.027L29.8276 346.195Z" fill="#263238"/>
<path d="M63.1685 377.337C62.5518 373.188 61.1297 369.151 59.0223 365.525C58.6111 364.814 58.1571 364.102 57.9601 363.305C57.7545 362.508 57.8487 361.582 58.397 360.982C59.3993 359.893 61.2239 360.373 62.4575 361.196C65.0018 362.902 66.7065 365.645 67.7002 368.542C68.7025 371.44 69.0623 374.509 69.4136 377.552" fill="#FFBE9D"/>
<path d="M93.5367 369.914H89.6646C88.8936 369.1 87.72 368.38 86.2637 367.96C85.3728 367.703 84.4904 368.183 83.7023 368.954C85.4327 366.1 87.3002 362.954 87.66 362.097C88.3539 360.425 86.8205 359.165 84.3105 359.165C81.8005 359.165 70.7839 374.792 70.7839 374.792C70.7839 374.792 77.6286 362.225 78.2968 360.305C79.9587 355.505 74.7074 355.145 72.8056 357.459C70.4413 360.331 60.8896 374.792 60.8896 374.792C60.8896 374.792 59.0735 377.723 60.3327 380.509C61.592 383.304 65.2157 382.181 65.2157 382.181C65.2157 382.181 65.19 384.624 67.7771 386.064C70.5783 387.624 74.2534 385.815 74.2534 385.815L88.5081 389.021C88.5081 389.021 90.7697 388.79 93.6652 388.507C100.887 387.787 106.695 382.249 107.749 375.066L93.5367 369.914Z" fill="#FFBE9D"/>
<path d="M83.9328 368.74C84.0955 368.835 82.1938 371.826 79.7352 375.401C78.5016 377.192 77.3622 378.795 76.5227 379.944C75.6832 381.092 75.1264 381.787 75.0835 381.752C75.0321 381.718 75.4862 380.964 76.2657 379.764C77.0453 378.572 78.1418 376.935 79.3754 375.143C80.609 373.352 81.7397 371.74 82.5621 370.583C82.9305 370.077 83.256 369.632 83.5473 369.22C83.7871 368.903 83.8985 368.749 83.9328 368.74Z" fill="#EB996E"/>
<path d="M83.0841 384.649C83.0242 384.615 83.5039 383.715 84.352 382.317C85.1915 380.912 86.3908 378.992 87.7101 376.874C88.3611 375.811 88.9951 374.8 89.5176 373.866C90.0573 372.965 90.023 371.98 89.8346 371.217C89.4148 369.665 88.541 368.997 88.6181 368.945C88.6353 368.928 88.858 369.065 89.175 369.408C89.4833 369.751 89.8945 370.317 90.143 371.131C90.3914 371.92 90.4685 373.051 89.886 374.054C89.372 375.023 88.7552 376.043 88.0956 377.106C86.7763 379.232 85.5342 381.117 84.6175 382.48C83.6924 383.843 83.1355 384.675 83.0841 384.649Z" fill="#EB996E"/>
<path d="M90.5736 386.072C90.5137 386.055 90.7535 385.18 91.3275 383.843C91.6359 383.14 91.9785 382.36 92.3469 381.52C92.7153 380.646 93.1436 379.686 93.392 378.64C93.649 377.629 93.4777 376.549 92.938 375.854C92.681 375.511 92.2955 375.306 91.9186 375.126C91.5502 374.954 91.1818 374.843 90.8563 374.826C90.2138 374.86 89.6741 375.211 89.3229 375.366C88.9631 375.546 88.7489 375.631 88.7404 375.606C88.7232 375.58 88.9031 375.443 89.2372 375.22C89.4086 375.109 89.6142 374.971 89.8797 374.834C90.1453 374.706 90.4366 374.534 90.8563 374.517C91.2589 374.508 91.6616 374.62 92.0728 374.791C92.4668 374.963 92.9209 375.177 93.2635 375.597C93.9231 376.42 94.103 377.62 93.8289 378.743C93.5633 379.849 93.1179 380.817 92.7238 381.692C92.3212 382.566 91.9357 383.329 91.6187 383.98C90.9762 385.266 90.6336 386.089 90.5736 386.072Z" fill="#EB996E"/>
<path d="M93.2036 372.571C93.2122 372.546 93.4349 372.597 93.8119 372.751C94.1888 372.906 94.7114 373.188 95.3025 373.626C96.4675 374.483 97.8639 376.137 98.3693 378.366C98.8661 380.595 98.3007 382.686 97.6069 383.963C97.2642 384.615 96.9044 385.086 96.6303 385.386C96.3561 385.686 96.1762 385.832 96.1591 385.806C96.0991 385.755 96.7331 385.103 97.3242 383.818C97.9238 382.549 98.395 380.56 97.9324 378.46C97.4612 376.36 96.1848 374.757 95.1054 373.866C94.0175 372.966 93.1694 372.648 93.2036 372.571Z" fill="#EB996E"/>
<path d="M68.1022 364.377C68.205 364.446 66.7573 366.76 64.8726 369.546C62.988 372.332 61.3775 374.535 61.2747 374.466C61.1719 374.398 62.6196 372.083 64.5043 369.297C66.3889 366.511 67.9994 364.308 68.1022 364.377Z" fill="#EB996E"/>
<path d="M160.535 355.187L151.626 353.164L143.068 345.098C142.031 344.121 140.677 343.538 139.255 343.452L123.69 342.552C122.139 342.467 120.606 342.972 119.424 343.975L108.296 353.387L156.843 377.071L163.507 377.663L160.535 355.187Z" fill="#FFBE9D"/>
<path d="M134.148 351.021C134.131 351.09 132.992 350.884 131.15 350.644C129.334 350.447 126.661 350.19 124.1 351.373C122.824 351.947 121.727 352.744 120.742 353.473C119.757 354.21 118.874 354.896 118.095 355.427C117.315 355.959 116.647 356.327 116.167 356.55C115.688 356.765 115.405 356.859 115.396 356.833C115.362 356.765 116.424 356.293 117.906 355.17C118.652 354.622 119.508 353.91 120.485 353.147C121.47 352.393 122.575 351.561 123.911 350.97C125.231 350.344 126.636 350.121 127.886 350.079C129.146 350.044 130.259 350.181 131.184 350.327C132.11 350.481 132.855 350.644 133.36 350.773C133.874 350.91 134.148 350.996 134.148 351.021Z" fill="#EB996E"/>
<path d="M137.337 359.696C137.311 359.765 136.703 359.49 135.658 359.379C134.622 359.259 133.157 359.387 131.658 359.936C130.158 360.493 128.899 361.265 127.991 361.822C127.083 362.379 126.509 362.722 126.475 362.67C126.441 362.619 126.946 362.19 127.811 361.565C128.685 360.947 129.936 360.107 131.495 359.525C133.062 358.95 134.622 358.865 135.692 359.07C136.789 359.267 137.363 359.662 137.337 359.696Z" fill="#EB996E"/>
<path d="M157.375 361.136C157.263 361.205 156.013 359.345 154.359 357.133C152.714 354.913 151.284 353.182 151.387 353.096C151.472 353.019 153.057 354.63 154.719 356.868C156.381 359.096 157.477 361.076 157.375 361.136Z" fill="#EB996E"/>
<path d="M132.859 343.487L152.596 325.092C153.453 324.294 153.384 322.923 152.459 322.211C151.739 321.663 150.729 321.697 150.052 322.306L126.914 343.075" fill="#B2CAF2"/>
<g opacity="0.3">
<path opacity="0.3" d="M132.859 343.487L152.596 325.092C153.453 324.294 153.384 322.923 152.459 322.211C151.739 321.663 150.729 321.697 150.052 322.306L126.914 343.075" fill="black"/>
</g>
<path d="M294.103 166.272C293.795 166.152 281.844 163.015 282.572 175.101C283.292 187.196 295.277 183.973 295.277 183.622C295.277 183.279 294.103 166.272 294.103 166.272Z" fill="#B78876"/>
<path d="M291.31 179.267C291.258 179.233 291.104 179.43 290.761 179.61C290.427 179.79 289.836 179.936 289.194 179.739C287.891 179.345 286.692 177.382 286.504 175.204C286.409 174.107 286.572 173.044 286.915 172.153C287.232 171.244 287.763 170.593 288.405 170.438C289.039 170.25 289.511 170.61 289.682 170.944C289.862 171.27 289.802 171.519 289.87 171.536C289.905 171.561 290.119 171.321 289.99 170.824C289.922 170.584 289.768 170.31 289.468 170.096C289.168 169.881 288.731 169.778 288.286 169.856C287.36 169.976 286.572 170.884 286.195 171.861C285.776 172.847 285.561 174.039 285.664 175.273C285.887 177.707 287.266 179.91 289.048 180.313C289.913 180.485 290.607 180.185 290.958 179.876C291.301 179.559 291.352 179.285 291.31 179.267Z" fill="#AA6550"/>
<path d="M324.275 123.079C330.417 123.079 336.662 123.079 344.355 127.099C349.204 129.628 352.228 133.648 354.755 138.5C356.691 142.212 357.83 147.08 357.607 151.263C357.385 155.446 357.368 158.369 355.697 162.21" fill="#263238"/>
<path d="M321.825 124.021C339.994 122.753 355.688 136.622 356.639 154.829C357.427 169.975 358.13 186.365 357.958 194.611C357.599 212.32 339.874 214.926 339.874 214.926C339.874 214.926 340.268 220.181 340.705 226.687C341.588 239.802 331.462 251.065 318.329 251.562C305.454 252.051 294.626 241.996 294.155 229.113L291.525 157.743C290.874 140.179 304.28 125.247 321.825 124.021Z" fill="#B78876"/>
<path d="M339.877 214.926C339.877 214.926 328.997 215.492 317.175 207.923C317.175 207.923 322.529 220.806 340.202 219.349L339.877 214.926Z" fill="#AA6550"/>
<path d="M349.865 164.677C349.899 166.015 348.803 167.146 347.406 167.206C346.018 167.266 344.853 166.238 344.819 164.909C344.785 163.572 345.881 162.44 347.269 162.372C348.666 162.312 349.831 163.349 349.865 164.677Z" fill="#263238"/>
<path d="M352.315 161.103C351.999 161.429 350.097 159.998 347.373 159.98C344.657 159.929 342.652 161.309 342.361 160.975C342.215 160.829 342.541 160.238 343.415 159.603C344.28 158.977 345.736 158.377 347.433 158.403C349.129 158.429 350.551 159.063 351.356 159.706C352.196 160.358 352.47 160.958 352.315 161.103Z" fill="#263238"/>
<path d="M323.19 164.678C323.224 166.015 322.127 167.147 320.731 167.207C319.343 167.267 318.178 166.238 318.144 164.909C318.11 163.572 319.206 162.441 320.602 162.372C321.999 162.312 323.155 163.349 323.19 164.678Z" fill="#263238"/>
<path d="M325.579 161.395C325.262 161.721 323.361 160.289 320.637 160.272C317.921 160.22 315.916 161.601 315.616 161.266C315.471 161.121 315.796 160.529 316.67 159.903C317.527 159.278 318.992 158.678 320.688 158.695C322.384 158.72 323.798 159.355 324.62 159.998C325.451 160.649 325.734 161.249 325.579 161.395Z" fill="#263238"/>
<path d="M335.286 181.659C335.278 181.504 336.965 181.222 339.707 180.896C340.401 180.827 341.06 180.699 341.18 180.227C341.352 179.73 341.06 178.976 340.735 178.161C340.092 176.473 339.424 174.707 338.722 172.855C335.929 165.295 333.916 159.089 334.216 158.978C334.524 158.866 337.034 164.901 339.827 172.461C340.495 174.321 341.137 176.104 341.754 177.801C342.011 178.59 342.457 179.49 342.097 180.527C341.908 181.042 341.394 181.419 340.949 181.53C340.503 181.659 340.109 181.667 339.767 181.684C337.008 181.813 335.295 181.813 335.286 181.659Z" fill="#263238"/>
<path d="M327.267 183.476C327.713 183.45 327.696 186.407 330.206 188.525C332.707 190.651 335.86 190.342 335.877 190.753C335.92 190.942 335.174 191.319 333.847 191.345C332.544 191.379 330.643 190.942 329.109 189.648C327.576 188.353 326.925 186.63 326.839 185.413C326.728 184.187 327.07 183.459 327.267 183.476Z" fill="#263238"/>
<path d="M326.367 150.74C326.092 151.477 323.377 151.109 320.19 151.469C316.986 151.76 314.408 152.677 313.988 152.009C313.799 151.692 314.253 150.997 315.299 150.286C316.335 149.583 317.989 148.914 319.907 148.717C321.826 148.52 323.574 148.837 324.73 149.326C325.895 149.797 326.487 150.389 326.367 150.74Z" fill="#263238"/>
<path d="M351.929 151.417C351.45 152.034 349.582 151.374 347.329 151.323C345.076 151.194 343.166 151.709 342.729 151.057C342.541 150.74 342.84 150.123 343.68 149.549C344.502 148.974 345.881 148.503 347.432 148.563C348.983 148.623 350.319 149.197 351.098 149.831C351.887 150.474 352.144 151.117 351.929 151.417Z" fill="#263238"/>
<path d="M291.733 163.28C291.733 163.28 292.503 167.378 292.709 169.221C292.786 169.898 292.701 177.398 294.517 177.776C296.084 178.101 299.194 176.67 300.582 173.567C301.97 170.464 304.608 163.015 304.317 159.629C303.931 155.009 303.709 150.32 304.634 145.777C305.559 141.234 307.726 136.802 311.376 133.948C315.025 131.093 320.285 130.09 324.422 132.173C326.975 133.459 328.886 135.731 331.267 137.308C333.409 138.731 336.022 139.588 338.566 139.211C341.11 138.834 343.509 137.059 344.211 134.582C344.965 131.882 343.577 128.916 341.418 127.133C339.26 125.341 336.467 124.519 333.709 123.978C326.076 122.461 317.989 122.761 310.733 125.581C303.477 128.402 297.044 133.819 293.943 140.959C290.37 149.223 290.79 154.28 291.733 163.28Z" fill="#263238"/>
<path d="M332.184 164.798C332.115 164.806 332.192 163.726 331.721 161.883C331.259 160.075 330.051 157.417 327.335 155.36C325.99 154.357 324.294 153.5 322.341 153.166C320.396 152.84 318.212 152.9 316.13 153.697C315.085 154.066 314.074 154.614 313.14 155.309C312.198 155.994 311.35 156.834 310.648 157.82C309.191 159.757 308.377 162.243 308.352 164.798C308.377 167.361 309.191 169.847 310.648 171.784C311.35 172.77 312.207 173.61 313.14 174.295C314.066 174.99 315.076 175.547 316.13 175.907C318.212 176.704 320.405 176.764 322.341 176.438C324.294 176.095 325.99 175.247 327.335 174.235C330.051 172.178 331.259 169.521 331.721 167.712C332.192 165.869 332.115 164.789 332.184 164.798C332.192 164.798 332.192 164.866 332.201 164.995C332.201 165.149 332.201 165.338 332.192 165.569C332.192 165.826 332.184 166.135 332.115 166.504C332.064 166.872 332.021 167.301 331.893 167.764C331.473 169.607 330.291 172.35 327.532 174.493C326.162 175.538 324.423 176.438 322.418 176.807C320.422 177.167 318.16 177.116 315.993 176.301C314.905 175.924 313.86 175.358 312.892 174.647C311.915 173.944 311.033 173.07 310.296 172.05C308.789 170.044 307.932 167.464 307.906 164.806C307.932 162.149 308.78 159.569 310.296 157.563C311.024 156.543 311.915 155.669 312.892 154.966C313.86 154.246 314.905 153.68 315.993 153.311C318.152 152.497 320.413 152.446 322.409 152.806C324.423 153.174 326.162 154.066 327.524 155.12C330.291 157.263 331.464 160.006 331.884 161.849C332.013 162.312 332.064 162.74 332.107 163.109C332.167 163.478 332.184 163.786 332.184 164.043C332.184 164.275 332.192 164.463 332.192 164.618C332.201 164.729 332.192 164.798 332.184 164.798Z" fill="#263238"/>
<path d="M363.339 164.798C363.27 164.806 363.347 163.726 362.876 161.883C362.414 160.075 361.206 157.417 358.49 155.36C357.145 154.357 355.449 153.5 353.496 153.166C351.551 152.84 349.367 152.9 347.285 153.697C346.24 154.066 345.229 154.614 344.295 155.309C343.353 155.994 342.505 156.834 341.803 157.82C340.346 159.757 339.532 162.243 339.507 164.798C339.532 167.361 340.346 169.847 341.803 171.784C342.505 172.77 343.362 173.61 344.295 174.295C345.221 174.99 346.231 175.547 347.285 175.907C349.367 176.704 351.56 176.764 353.496 176.438C355.449 176.095 357.145 175.247 358.49 174.235C361.206 172.178 362.414 169.521 362.876 167.712C363.347 165.869 363.27 164.789 363.339 164.798C363.347 164.798 363.347 164.866 363.356 164.995C363.356 165.149 363.356 165.338 363.347 165.569C363.347 165.826 363.339 166.135 363.27 166.504C363.219 166.872 363.176 167.301 363.048 167.764C362.628 169.607 361.446 172.35 358.687 174.493C357.317 175.538 355.578 176.438 353.573 176.807C351.577 177.167 349.315 177.116 347.157 176.301C346.069 175.924 345.024 175.358 344.056 174.647C343.079 173.944 342.197 173.07 341.46 172.05C339.952 170.044 339.096 167.464 339.07 164.806C339.096 162.149 339.944 159.569 341.46 157.563C342.188 156.543 343.079 155.669 344.056 154.966C345.024 154.246 346.069 153.68 347.157 153.311C349.315 152.497 351.577 152.446 353.573 152.806C355.586 153.174 357.325 154.066 358.687 155.12C361.454 157.263 362.628 160.006 363.048 161.849C363.176 162.312 363.228 162.74 363.27 163.109C363.33 163.478 363.347 163.786 363.347 164.043C363.347 164.275 363.356 164.463 363.356 164.618C363.347 164.729 363.347 164.798 363.339 164.798Z" fill="#263238"/>
<path d="M339.568 163.512C339.525 163.572 339.131 163.349 338.455 163.126C337.778 162.903 336.81 162.706 335.731 162.774C334.651 162.852 333.709 163.169 333.075 163.477C332.432 163.786 332.073 164.06 332.021 164.009C331.987 163.975 332.287 163.606 332.921 163.203C333.555 162.8 334.548 162.406 335.696 162.329C336.853 162.252 337.889 162.509 338.566 162.826C339.26 163.152 339.603 163.469 339.568 163.512Z" fill="#263238"/>
<path d="M344.399 133.64C344.57 132.723 344.271 132.208 344.785 131.831C345.376 131.403 346.489 132.525 346.901 132.98C347.029 133.126 347.449 132.56 347.612 132.457C347.74 132.371 347.937 131.437 347.92 131.283C347.843 130.64 346.841 130.468 346.369 130.031C345.898 129.594 345.307 129.294 344.699 129.088C344.168 128.9 343.517 128.797 343.097 129.182C342.78 129.474 342.729 129.954 342.737 130.383C342.746 130.811 342.806 131.24 342.977 131.634C343.148 132.028 343.44 132.371 343.825 132.551" fill="#263238"/>
<path d="M291.071 153.877C291.071 153.877 299.749 157.057 304.264 158.977L304.007 154.537L291.38 149.54C291.388 149.531 291.071 152.831 291.071 153.877Z" fill="#F2F2F2"/>
<path d="M291.886 146.977C291.937 146.865 294.687 147.92 298.028 149.334C301.369 150.748 304.042 151.991 303.999 152.103C303.948 152.214 301.198 151.16 297.857 149.746C294.507 148.331 291.835 147.088 291.886 146.977Z" fill="#F2F2F2"/>
<path d="M294.499 240.513L293.831 219.495C293.831 219.495 298.002 238.73 319.856 238.473C340.741 238.233 340.355 221.527 340.355 221.527L341.101 229.996V264.206L327.48 320.017L310.081 322.229L290.858 245.931L294.499 240.513Z" fill="#B2CAF2"/>
<path d="M338.41 233.785C338.427 233.793 338.333 233.947 338.162 234.23C337.973 234.505 337.742 234.959 337.331 235.448C336.577 236.485 335.301 237.856 333.442 239.219C331.591 240.582 329.107 241.825 326.177 242.631C323.248 243.428 319.864 243.745 316.377 243.308C312.899 242.837 309.695 241.774 306.963 240.471C304.221 239.176 301.917 237.685 300.084 236.322C298.25 234.959 296.845 233.742 295.92 232.867C295.449 232.439 295.106 232.079 294.867 231.847C294.627 231.607 294.515 231.479 294.524 231.47C294.532 231.462 294.678 231.565 294.927 231.787C295.218 232.036 295.586 232.353 296.04 232.747C297.008 233.579 298.43 234.753 300.272 236.073C302.122 237.393 304.418 238.842 307.142 240.102C309.858 241.371 313.019 242.408 316.446 242.871C319.872 243.299 323.196 242.999 326.083 242.236C328.97 241.465 331.429 240.274 333.27 238.962C335.121 237.659 336.423 236.339 337.202 235.345C337.991 234.359 338.376 233.759 338.41 233.785Z" fill="#263238"/>
<path d="M323.248 413.167L322.931 313.982L294.781 241.593L293.839 219.812L276.689 232.789C276.689 232.789 251.717 318.791 251.332 315.808C250.946 312.825 251.323 413.167 251.323 413.167H323.248Z" fill="#F2F2F2"/>
<path d="M322.573 412.892C322.453 412.892 322.35 390.546 322.35 362.978C322.35 335.403 322.453 313.064 322.573 313.064C322.693 313.064 322.796 335.411 322.796 362.978C322.796 390.546 322.701 412.892 322.573 412.892Z" fill="#263238"/>
<path d="M276.937 246.958L280.423 249.599L277.973 265.645L319.058 308.702L281.742 259.671L284.921 246.958H276.937Z" fill="#E0E0E0"/>
<path d="M324.788 362.353L261.73 343.855L259.64 295.929L276.936 232.789C276.936 232.789 235.713 253.37 232.903 266.468C230.102 279.566 223.335 311.402 222.615 334.409C221.973 354.981 221.878 368.739 226.573 375.305C240.022 394.112 328.635 397.472 364.032 375.279" fill="#F2F2F2"/>
<path d="M319.855 309.747C319.847 309.756 319.778 309.67 319.65 309.516C319.504 309.336 319.324 309.104 319.084 308.813C318.579 308.162 317.859 307.244 316.943 306.07C315.084 303.653 312.419 300.19 309.13 295.921C302.551 287.306 293.496 275.451 283.49 262.345C282.839 261.496 282.197 260.648 281.563 259.808L281.494 259.722L281.52 259.619C282.625 255.23 283.687 250.97 284.707 246.907L284.912 247.173C282.154 247.173 279.49 247.164 276.928 247.164H276.723V246.958C276.731 241.772 276.748 237.006 276.757 232.789V232.703L276.825 232.652C282.025 228.7 286.257 225.477 289.221 223.231C290.678 222.134 291.825 221.277 292.622 220.677C292.999 220.403 293.299 220.18 293.513 220.017C293.719 219.871 293.821 219.803 293.83 219.803C293.839 219.811 293.736 219.897 293.547 220.051C293.333 220.223 293.05 220.454 292.682 220.746C291.894 221.363 290.772 222.246 289.333 223.369C286.394 225.649 282.197 228.906 277.031 232.909L277.1 232.772C277.108 236.989 277.117 241.747 277.134 246.941L276.928 246.736C279.49 246.736 282.154 246.727 284.912 246.727H285.186L285.118 246.993C284.107 251.056 283.045 255.316 281.948 259.705L281.905 259.516C282.539 260.356 283.19 261.196 283.833 262.053C293.796 275.186 302.816 287.075 309.361 295.707C312.599 300.01 315.229 303.498 317.063 305.941C317.953 307.141 318.647 308.076 319.136 308.736C319.358 309.044 319.53 309.284 319.667 309.473C319.804 309.653 319.864 309.739 319.855 309.747Z" fill="#263238"/>
<path d="M347.962 229.06C342.933 220.257 340.32 221.174 340.32 221.174L340.586 224.312L340.595 230.903L338.213 259.182L322.939 320.634L323.256 413.158H381.003L388.19 300.207L387.539 251.553L347.962 229.06Z" fill="#F2F2F2"/>
<path d="M387.532 251.562C387.532 251.562 402.48 262.602 403.774 280.363C404.827 294.789 407.235 334.297 407.671 342.895C408.348 356.293 397.931 387.648 370.792 378.768C354.516 373.436 294.396 352.992 294.396 352.992L298.397 327.44L369.765 331.691L371.178 272.134L387.532 251.562Z" fill="#F2F2F2"/>
<path d="M297.583 330.388C297.583 330.388 277.383 328.202 272.705 329.334C268.208 330.422 261.809 335.926 261.809 335.926L261.903 343.915L294.396 353.001L297.583 330.388Z" fill="#B78876"/>
<path d="M322.93 311.402C322.921 311.402 322.956 311.307 323.016 311.127C323.093 310.93 323.196 310.664 323.316 310.339C323.598 309.619 324.009 308.607 324.523 307.321C325.603 304.681 327.145 300.901 329.047 296.246C330.974 291.566 333.261 286.012 335.806 279.84C336.448 278.306 337.082 276.703 337.87 275.134C338.633 273.548 339.532 272.005 340.457 270.437C342.359 267.325 344.509 264.231 346.874 261.179C348.039 259.679 349.212 258.213 350.429 256.807L350.386 257.039C349.529 254.861 348.69 252.719 347.867 250.636L347.782 250.421L347.996 250.344C351.679 249.093 355.209 247.893 358.524 246.761L358.413 247.053C353.53 238.892 349.401 232 346.479 227.114C345.032 224.697 343.798 222.76 342.496 221.971C341.854 221.577 341.28 221.414 340.903 221.328C340.517 221.234 340.32 221.2 340.32 221.183C340.32 221.183 340.526 221.191 340.92 221.26C341.305 221.337 341.896 221.465 342.573 221.86C343.25 222.246 343.935 222.94 344.595 223.823C345.263 224.714 345.974 225.769 346.694 226.986C349.649 231.855 353.83 238.721 358.772 246.847L358.901 247.061L358.661 247.147C355.346 248.287 351.825 249.495 348.141 250.756L348.27 250.473C349.092 252.556 349.932 254.69 350.797 256.876L350.848 257.004L350.763 257.107C349.563 258.496 348.39 259.962 347.225 261.462C344.878 264.505 342.727 267.591 340.834 270.677C339.909 272.237 339.018 273.771 338.256 275.34C337.467 276.891 336.834 278.468 336.182 280.011C333.613 286.166 331.291 291.712 329.338 296.384C327.385 301.021 325.8 304.775 324.686 307.407C324.138 308.684 323.71 309.687 323.401 310.399C323.256 310.724 323.144 310.973 323.059 311.17C322.981 311.316 322.939 311.402 322.93 311.402Z" fill="#263238"/>
<path d="M395.728 373.805C395.736 373.814 395.651 373.9 395.479 374.071C395.291 374.251 395.034 374.5 394.708 374.817C394.023 375.46 392.943 376.343 391.427 377.303C389.894 378.228 387.898 379.188 385.422 379.823C382.955 380.466 380.017 380.706 376.821 380.371C375.228 380.191 373.575 379.84 371.895 379.326C370.216 378.794 368.546 378.134 366.773 377.508C363.243 376.231 359.465 374.894 355.482 373.497C347.515 370.702 338.734 367.719 329.482 364.685C310.979 358.599 294.103 353.473 281.87 349.821C275.77 348.013 270.819 346.547 267.375 345.527C265.679 345.021 264.36 344.627 263.434 344.352C262.997 344.215 262.663 344.112 262.415 344.035C262.184 343.958 262.072 343.924 262.072 343.915C262.072 343.907 262.192 343.932 262.432 343.992C262.689 344.061 263.032 344.147 263.469 344.267C264.394 344.524 265.73 344.892 267.435 345.355C270.87 346.315 275.839 347.73 281.972 349.513C294.223 353.087 311.124 358.17 329.637 364.256C338.889 367.291 347.669 370.291 355.628 373.111C359.602 374.517 363.38 375.863 366.91 377.165C368.674 377.791 370.371 378.468 372.015 379C373.669 379.514 375.296 379.874 376.873 380.054C380.025 380.406 382.929 380.191 385.379 379.583C387.829 378.974 389.825 378.057 391.359 377.157C392.875 376.223 393.963 375.365 394.665 374.748C394.999 374.448 395.265 374.208 395.462 374.037C395.625 373.874 395.728 373.797 395.728 373.805Z" fill="#263238"/>
<path d="M261.903 344.052C261.886 344.146 260.772 343.897 258.956 343.974C258.056 344.017 256.986 344.163 255.838 344.489C254.698 344.832 253.49 345.354 252.325 346.092C249.995 347.583 248.402 349.589 247.442 351.115C246.483 352.658 246.072 353.721 245.995 353.686C245.969 353.678 246.055 353.403 246.235 352.923C246.406 352.435 246.723 351.758 247.177 350.952C248.085 349.358 249.687 347.257 252.094 345.714C253.293 344.952 254.553 344.429 255.735 344.094C256.926 343.777 258.031 343.657 258.956 343.657C259.881 343.666 260.626 343.734 261.132 343.854C261.629 343.949 261.911 344.017 261.903 344.052Z" fill="#263238"/>
<path d="M242.038 337.786C242.021 337.777 242.055 337.7 242.115 337.563C242.184 337.426 242.304 337.22 242.509 337.006C242.903 336.551 243.7 336.088 244.754 335.891C245.799 335.668 247.084 335.72 248.454 335.9C249.834 336.08 251.333 336.423 252.849 336.971C255.89 338.043 258.323 339.757 259.814 341.24C260.559 341.986 261.09 342.655 261.433 343.135C261.758 343.623 261.93 343.897 261.904 343.915C261.835 343.966 261.124 342.869 259.6 341.472C258.083 340.074 255.676 338.446 252.695 337.4C251.213 336.868 249.748 336.517 248.394 336.32C247.041 336.123 245.816 336.037 244.805 336.217C243.794 336.371 243.04 336.757 242.629 337.143C242.218 337.511 242.072 337.811 242.038 337.786Z" fill="#263238"/>
<path d="M265.578 282.746C265.544 282.746 265.441 282.283 265.286 281.443C265.158 281.04 264.97 280.552 264.781 279.978C264.507 279.437 264.241 278.803 263.847 278.143C263.076 276.823 261.988 275.357 260.635 273.866C259.239 272.409 257.611 270.883 255.709 269.528C251.923 266.803 247.931 265.2 244.941 264.582C243.442 264.317 242.217 264.12 241.352 264.128C240.495 264.085 240.024 264.051 240.015 264.017C240.015 263.982 240.486 263.965 241.352 263.948C242.217 263.888 243.467 264.034 244.992 264.265C248.033 264.814 252.12 266.391 255.958 269.16C257.885 270.531 259.53 272.083 260.926 273.583C262.288 275.117 263.368 276.626 264.113 277.98C264.49 278.657 264.747 279.317 265.004 279.875C265.184 280.466 265.346 280.972 265.449 281.392C265.569 282.275 265.612 282.746 265.578 282.746Z" fill="#263238"/>
<path d="M385.295 356.027C385.286 356.027 385.278 355.924 385.278 355.718C385.269 355.495 385.269 355.195 385.26 354.818C385.235 354.029 385.209 352.872 385.089 351.381C384.841 348.415 384.335 344.069 382.553 339.028C382.108 337.777 381.611 336.465 380.823 335.257C380.052 334.04 378.904 333.028 377.482 332.42C374.612 331.185 371.16 331.348 367.648 331.151C360.58 330.851 352.81 330.525 344.655 330.182C325.654 329.359 308.753 328.639 298.13 328.074L298.276 327.962C297.633 331.862 297.128 334.965 296.777 337.108C296.597 338.146 296.46 338.96 296.357 339.534C296.305 339.791 296.271 339.997 296.237 340.16C296.211 340.297 296.194 340.366 296.185 340.366C296.177 340.366 296.186 340.289 296.203 340.151C296.22 339.989 296.245 339.783 296.28 339.526C296.365 338.951 296.477 338.137 296.622 337.091C296.948 334.94 297.41 331.837 298.002 327.919L298.019 327.799L298.147 327.808C308.813 328.254 325.689 328.957 344.672 329.745C352.828 330.097 360.597 330.439 367.665 330.748C369.429 330.834 371.151 330.877 372.839 331.014C374.518 331.159 376.163 331.434 377.636 332.094C379.11 332.728 380.335 333.817 381.114 335.077C381.92 336.328 382.416 337.666 382.853 338.934C384.609 344.026 385.072 348.398 385.26 351.381C385.346 352.881 385.355 354.046 385.346 354.835C385.338 355.212 385.329 355.504 385.32 355.735C385.312 355.924 385.303 356.027 385.295 356.027Z" fill="#263238"/>
<path d="M371.683 300.121C371.803 300.121 371.906 307.039 371.906 315.568C371.906 324.097 371.803 331.014 371.683 331.014C371.563 331.014 371.46 324.097 371.46 315.568C371.46 307.039 371.563 300.121 371.683 300.121Z" fill="#263238"/>
<path d="M233.411 264.925C233.411 264.925 233.359 265.122 233.231 265.491C233.119 265.868 232.897 266.408 232.717 267.162C232.297 268.645 231.774 270.865 231.183 273.754C229.992 279.531 228.519 287.983 226.874 298.561C226.06 303.85 225.187 309.679 224.33 315.97C223.893 319.116 223.628 322.391 223.396 325.785C223.174 329.18 222.994 332.677 222.865 336.286C222.608 343.495 222.454 351.106 222.66 359.035C222.719 361.015 222.797 363.021 222.959 365.036C223.011 366.047 223.174 367.042 223.302 368.044C223.516 369.03 223.696 370.042 224.03 371.002C224.647 372.948 225.581 374.816 226.866 376.428C228.151 378.031 229.83 379.419 231.74 380.182L231.766 380.191L231.774 380.199C235.724 382.239 240.058 383.722 244.479 385.051C248.907 386.38 253.482 387.451 258.125 388.403C268.525 390.528 278.83 391.78 288.793 392.14C293.779 392.294 298.662 392.106 303.434 391.754C308.205 391.42 312.857 390.923 317.354 390.254C326.358 388.951 334.753 386.954 342.334 384.442C349.924 381.939 356.675 378.905 362.534 375.768L362.56 376.042C350.798 371.876 341.358 368.533 334.847 366.227C331.609 365.07 329.099 364.17 327.386 363.561C326.546 363.253 325.904 363.021 325.458 362.858C325.021 362.696 324.807 362.61 324.807 362.61C324.807 362.61 325.038 362.678 325.475 362.824C325.921 362.978 326.572 363.193 327.42 363.484C329.142 364.076 331.66 364.95 334.907 366.073C341.426 368.353 350.884 371.645 362.663 375.759L362.988 375.871L362.68 376.033C356.812 379.188 350.053 382.257 342.454 384.785C334.856 387.314 326.443 389.337 317.414 390.657C312.908 391.334 308.248 391.84 303.468 392.174C298.696 392.526 293.779 392.714 288.785 392.569C278.796 392.209 268.465 390.966 258.039 388.831C253.379 387.871 248.796 386.8 244.35 385.462C239.913 384.125 235.569 382.642 231.569 380.568L231.603 380.585C229.547 379.762 227.868 378.339 226.532 376.685C225.204 375.022 224.253 373.102 223.619 371.113C223.276 370.127 223.088 369.107 222.874 368.096C222.745 367.076 222.582 366.056 222.531 365.044C222.368 363.021 222.3 361.015 222.24 359.027C222.043 351.081 222.205 343.46 222.48 336.251C222.617 332.643 222.805 329.137 223.036 325.742C223.268 322.348 223.55 319.056 223.996 315.91C224.87 309.619 225.761 303.798 226.6 298.509C228.288 287.932 229.804 279.488 231.038 273.72C231.654 270.831 232.203 268.619 232.648 267.136C232.845 266.391 233.076 265.842 233.205 265.473C233.325 265.105 233.411 264.925 233.411 264.925Z" fill="#263238"/>
<path d="M261.809 338.129C272.354 326.445 271.891 305.676 265.835 290.932C265.278 306.902 263.393 321.062 261.954 336.577" fill="#E0E0E0"/>
<path d="M265.861 293.924C265.878 293.924 265.878 294.104 265.861 294.438C265.835 294.824 265.801 295.304 265.767 295.895C265.664 297.224 265.518 299.033 265.347 301.253C264.97 305.83 264.456 312.045 263.891 318.919C263.351 325.794 262.863 332.017 262.503 336.595C262.34 338.815 262.203 340.623 262.1 341.952C262.049 342.543 262.006 343.023 261.972 343.409C261.937 343.744 261.912 343.915 261.895 343.915C261.877 343.915 261.877 343.735 261.877 343.401C261.886 343.015 261.903 342.535 261.92 341.943C261.963 340.675 262.057 338.84 262.186 336.577C262.443 332.043 262.88 325.794 263.437 318.894C264.002 311.993 264.576 305.753 265.021 301.236C265.253 299.024 265.441 297.215 265.587 295.895C265.655 295.304 265.715 294.824 265.767 294.447C265.818 294.095 265.844 293.924 265.861 293.924Z" fill="#263238"/>
<path d="M291.859 272.82C291.979 272.82 292.082 276.875 292.082 281.881C292.082 286.887 291.979 290.941 291.859 290.941C291.74 290.941 291.637 286.887 291.637 281.881C291.637 276.875 291.731 272.82 291.859 272.82Z" fill="#263238"/>
<path d="M284.989 302.917C285.143 304.768 285.94 306.431 286.933 307.717C287.927 309.003 289.94 310.263 291.559 310.177C291.559 310.177 295.603 310.52 297.787 307.048C299.758 303.903 300.246 297.362 298.661 293.496C297.573 290.839 295.132 288.362 292.253 288.302C288.484 288.216 286.12 290.942 285.314 293.693" fill="#E0E0E0"/>
<path d="M285.314 293.693C285.314 293.693 285.4 292.973 286.008 291.842C286.317 291.285 286.762 290.625 287.422 289.99C288.073 289.356 288.972 288.764 290.086 288.422C290.643 288.259 291.242 288.147 291.876 288.139C292.51 288.104 293.187 288.182 293.838 288.396C295.149 288.816 296.365 289.724 297.333 290.907C298.31 292.082 299.038 293.573 299.389 295.193C299.757 296.813 299.869 298.528 299.775 300.276C299.603 302.959 299.072 305.634 297.59 307.674C296.836 308.677 295.808 309.397 294.746 309.817C293.675 310.246 292.579 310.408 291.525 310.357H291.551C290.685 310.391 289.914 310.108 289.246 309.783C288.578 309.44 287.996 309.028 287.507 308.574C286.539 307.648 286 306.611 285.614 305.754C285.246 304.888 285.083 304.168 285.014 303.671C284.98 303.422 284.963 303.234 284.963 303.105C284.954 302.977 284.963 302.908 284.972 302.908C285.04 302.891 285.032 303.988 285.811 305.668C286.214 306.482 286.771 307.494 287.713 308.351C288.184 308.78 288.749 309.165 289.392 309.483C290.034 309.783 290.771 310.031 291.534 309.988H291.542H291.559C293.487 310.057 295.834 309.311 297.256 307.408C298.635 305.497 299.166 302.874 299.338 300.242C299.518 296.848 298.952 293.436 297.025 291.165C296.108 290.024 294.952 289.159 293.727 288.747C293.118 288.542 292.493 288.464 291.893 288.482C291.285 288.482 290.711 288.584 290.18 288.73C289.118 289.03 288.244 289.579 287.593 290.179C286.933 290.77 286.479 291.405 286.162 291.936C285.52 293.007 285.366 293.71 285.314 293.693Z" fill="#263238"/>
<path d="M282.984 303.08C283.139 304.931 283.935 306.594 284.929 307.88C285.923 309.166 287.936 310.426 289.555 310.34C289.555 310.34 293.598 310.683 295.783 307.212C297.753 304.066 298.241 297.525 296.657 293.659C295.569 291.002 293.127 288.525 290.249 288.465C286.48 288.379 284.115 291.105 283.31 293.857" fill="#E0E0E0"/>
<path d="M283.31 293.865C283.31 293.865 283.396 293.145 284.004 292.013C284.313 291.456 284.758 290.796 285.418 290.162C286.069 289.527 286.968 288.936 288.082 288.593C288.639 288.43 289.238 288.319 289.872 288.31C290.506 288.276 291.183 288.353 291.834 288.567C293.145 288.987 294.361 289.896 295.329 291.079C296.306 292.253 297.034 293.745 297.385 295.365C297.754 296.985 297.865 298.699 297.771 300.448C297.599 303.131 297.068 305.805 295.586 307.845C294.832 308.848 293.804 309.568 292.742 309.988C291.671 310.417 290.575 310.58 289.521 310.528H289.547C288.682 310.563 287.911 310.28 287.242 309.954C286.574 309.611 285.992 309.2 285.503 308.745C284.535 307.82 283.996 306.782 283.61 305.925C283.242 305.059 283.088 304.339 283.011 303.842C282.976 303.594 282.959 303.405 282.959 303.277C282.951 303.148 282.959 303.079 282.968 303.079C283.036 303.062 283.028 304.159 283.807 305.84C284.21 306.654 284.767 307.665 285.709 308.523C286.18 308.951 286.746 309.337 287.388 309.654C288.031 309.954 288.767 310.203 289.53 310.16H289.538H289.555C291.483 310.228 293.83 309.483 295.252 307.58C296.631 305.668 297.162 303.045 297.334 300.414C297.514 297.019 296.948 293.607 295.021 291.327C294.104 290.187 292.948 289.322 291.723 288.91C291.114 288.704 290.489 288.627 289.889 288.644C289.281 288.644 288.707 288.747 288.176 288.893C287.114 289.193 286.24 289.742 285.589 290.342C284.929 290.933 284.475 291.567 284.158 292.099C283.516 293.179 283.362 293.882 283.31 293.865Z" fill="#263238"/>
<path d="M286.616 292.896C284.74 292.519 282.812 293.813 282.016 295.545C281.219 297.285 281.399 299.333 282.024 301.142C282.341 302.059 282.787 302.951 283.455 303.662C284.123 304.374 285.04 304.879 286.008 304.905C287.43 304.948 288.715 303.971 289.546 302.813C290.882 300.945 291.336 298.468 290.754 296.239C290.359 294.756 289.272 293.23 287.738 293.187" fill="#E0E0E0"/>
<path d="M287.731 293.196C287.731 293.187 287.851 293.17 288.074 293.187C288.296 293.213 288.63 293.29 288.999 293.504C289.753 293.924 290.609 294.953 290.96 296.453C291.32 297.928 291.286 299.848 290.429 301.699C290.001 302.616 289.393 303.525 288.51 304.219C287.654 304.914 286.403 305.359 285.204 305.008C284.022 304.674 283.122 303.799 282.565 302.848C282 301.888 281.674 300.876 281.469 299.89C281.058 297.919 281.392 295.965 282.325 294.713C283.242 293.453 284.476 292.922 285.315 292.81C285.735 292.742 286.069 292.776 286.292 292.81C286.514 292.853 286.626 292.887 286.617 292.904C286.609 292.956 286.146 292.819 285.341 292.982C284.553 293.136 283.405 293.684 282.582 294.893C281.743 296.076 281.46 297.919 281.871 299.805C282.077 300.748 282.411 301.733 282.942 302.625C283.473 303.508 284.287 304.288 285.332 304.579C286.369 304.879 287.448 304.511 288.253 303.876C289.067 303.242 289.658 302.385 290.07 301.528C290.901 299.779 290.978 297.945 290.661 296.522C290.369 295.09 289.598 294.079 288.922 293.65C288.228 293.196 287.722 293.247 287.731 293.196Z" fill="#263238"/>
<path d="M290.934 306.988C290.865 307.005 290.771 306.722 290.48 306.371C290.197 306.028 289.675 305.642 289.015 305.437C288.347 305.231 287.696 305.197 287.216 305.154C286.736 305.119 286.437 305.077 286.437 305.017C286.437 304.957 286.728 304.888 287.216 304.837C287.704 304.794 288.398 304.777 289.152 305.008C289.906 305.239 290.48 305.737 290.737 306.191C291.003 306.645 290.985 306.988 290.934 306.988Z" fill="#263238"/>
<path d="M291.611 291.73C291.654 291.765 291.482 292.039 291.08 292.356C290.685 292.673 290.043 293.008 289.272 293.145C288.501 293.282 287.781 293.196 287.302 293.033C286.813 292.879 286.565 292.682 286.591 292.639C286.634 292.51 287.773 292.973 289.195 292.708C290.617 292.459 291.525 291.628 291.611 291.73Z" fill="#263238"/>
<path d="M350.472 230.329C350.481 230.312 350.575 230.355 350.755 230.432C350.935 230.518 351.192 230.638 351.518 230.826C352.169 231.195 353.077 231.778 354.088 232.66C356.109 234.383 358.474 237.435 359.604 241.387C360.787 245.27 361.429 248.913 361.703 251.553C361.849 252.873 361.935 253.944 361.977 254.682C362.02 255.419 362.029 255.83 362.003 255.839C361.969 255.839 361.909 255.436 361.806 254.699C361.695 253.876 361.558 252.839 361.386 251.587C361.026 248.964 360.35 245.373 359.168 241.515C358.062 237.649 355.809 234.649 353.873 232.892C351.937 231.109 350.421 230.415 350.472 230.329Z" fill="#263238"/>
<path d="M339.807 324.689C342.292 324.594 344.271 322.117 346.755 322.246C348.597 322.34 350.164 324.149 350.01 325.983C349.856 327.817 348.006 329.335 346.172 329.12C343.568 328.82 342.043 325.76 339.482 325.177" fill="#263238"/>
<path d="M360.855 326.805C360.11 326.805 359.339 326.737 358.533 326.617L358.67 325.768C361.737 326.265 364.316 325.76 366.329 324.268C368.865 322.408 370.501 319.065 371.186 314.351L371.212 314.171C371.495 312.302 371.88 275.64 371.88 268.68C371.88 257.811 362.345 256.319 361.934 256.268C361.549 256.199 352.879 254.75 348.279 266.622C343.465 279.06 335.763 303.019 335.249 305.83C335.189 306.173 335.095 306.602 334.984 307.09C334.187 310.69 332.517 318.165 337.502 322.477C343.062 327.277 347.448 325.425 347.628 325.34L347.979 326.12C347.774 326.214 342.934 328.306 336.937 323.12C331.566 318.474 333.305 310.656 334.136 306.893C334.239 306.413 334.333 306.002 334.393 305.659C334.907 302.83 342.634 278.76 347.465 266.297C352.331 253.73 361.96 255.385 362.054 255.402C362.14 255.41 372.72 257.031 372.72 268.663C372.72 274.397 372.343 312.302 372.043 314.282L372.017 314.462C371.297 319.408 369.55 322.94 366.817 324.945C365.164 326.188 363.159 326.805 360.855 326.805Z" fill="#263238"/>
<path d="M372.307 275.691C372.196 275.734 372.059 273.866 370.526 271.414C369.763 270.205 368.632 268.894 367.142 267.745C365.643 266.605 363.758 265.637 361.642 265.148C357.359 264.162 353.298 265.234 350.797 266.562C348.244 267.891 347.096 269.348 347.028 269.263C347.019 269.254 347.088 269.16 347.225 268.997C347.37 268.843 347.559 268.585 347.867 268.311C348.441 267.737 349.375 266.991 350.651 266.28C351.928 265.56 353.572 264.917 355.483 264.574C357.385 264.222 359.56 264.197 361.753 264.702C363.946 265.208 365.874 266.22 367.407 267.411C368.932 268.611 370.063 269.983 370.808 271.243C371.554 272.503 371.956 273.634 372.128 274.431C372.239 274.826 372.265 275.143 372.299 275.357C372.316 275.58 372.325 275.691 372.307 275.691Z" fill="#263238"/>
<path d="M394.127 344.223C394.033 344.24 393.887 342.749 392.953 340.563C392.028 338.411 390.169 335.548 387.145 333.585C385.646 332.608 383.959 332.154 382.434 331.879C380.892 331.622 379.47 331.528 378.287 331.451C377.165 331.374 376.223 331.305 375.469 331.254C374.801 331.194 374.432 331.142 374.441 331.116C374.441 331.082 374.809 331.074 375.478 331.082C376.24 331.099 377.182 331.116 378.305 331.134C379.495 331.176 380.926 331.236 382.502 331.476C384.07 331.734 385.817 332.188 387.394 333.208C390.529 335.24 392.388 338.214 393.253 340.443C393.69 341.566 393.93 342.517 394.033 343.186C394.136 343.846 394.153 344.223 394.127 344.223Z" fill="#263238"/>
<path d="M350.917 329.917C350.917 329.917 359.337 317.153 361.496 315.473C363.646 313.801 382.039 305.495 384.189 306.833C386.339 308.17 385.02 311.067 385.02 311.067C385.02 311.067 392.807 308.341 393.629 309.413C394.46 310.484 394.623 312.31 393.629 313.801C393.629 313.801 397.938 313.141 397.938 314.461C397.938 315.79 397.441 317.444 395.454 318.936C393.467 320.428 380.54 329.034 379.503 331.417L375.314 331.159L350.917 329.917Z" fill="#B78876"/>
<path d="M375.159 326.265C375.134 326.248 375.262 325.956 375.545 325.459C375.828 324.962 376.282 324.259 376.933 323.462C378.209 321.85 380.351 319.922 383.041 318.319C385.731 316.716 388.369 315.653 390.271 314.924C391.222 314.564 392.001 314.29 392.541 314.101C393.081 313.921 393.389 313.836 393.398 313.861C393.406 313.887 393.124 314.033 392.601 314.264C391.984 314.53 391.247 314.847 390.382 315.216C388.515 316.022 385.919 317.119 383.263 318.705C380.608 320.29 378.483 322.142 377.164 323.676C375.828 325.193 375.228 326.308 375.159 326.265Z" fill="#AA6550"/>
<path d="M364.468 326.059C364.442 326.042 364.588 325.708 364.879 325.116C365.17 324.525 365.599 323.676 366.173 322.648C366.755 321.628 367.492 320.419 368.494 319.21C369.008 318.61 369.531 317.993 370.259 317.462C370.97 316.982 371.715 316.536 372.495 316.073C375.596 314.264 378.525 312.824 380.718 311.967C381.815 311.53 382.732 311.256 383.366 311.084C384.008 310.938 384.368 310.87 384.376 310.904C384.394 310.981 382.98 311.307 380.838 312.267C378.688 313.184 375.801 314.659 372.717 316.467C371.955 316.922 371.201 317.367 370.507 317.83C369.873 318.293 369.308 318.919 368.811 319.485C367.809 320.65 367.063 321.825 366.447 322.819C365.89 323.762 365.41 324.568 365.033 325.211C364.699 325.768 364.493 326.068 364.468 326.059Z" fill="#AA6550"/>
<path d="M146.607 80.1149H143.001L135.137 69.1429V61.9425C135.137 61.9425 129.568 61.5996 130.219 71.0287C130.879 80.4577 130.168 78.0576 130.168 78.0576C130.168 78.0576 118.338 78.1005 117.352 79.1291C116.641 79.8748 116.316 91.6355 116.187 98.0129C116.127 101.227 118.089 104.21 121.079 104.965C121.499 105.076 121.936 105.136 122.355 105.136C125.302 105.136 140.388 102.736 140.388 102.736H146.616V80.1149H146.607Z" fill="#F5F5F5"/>
<path d="M156.929 78.1348L154.71 102.813H148.542V78.6319L156.929 78.1348Z" fill="#F5F5F5"/>
<path d="M253.499 83.5488C253.499 82.7204 252.828 82.0488 251.999 82.0488H244.155C243.327 82.0488 242.655 82.7204 242.655 83.5488V118.739C242.655 119.567 243.327 120.239 244.155 120.239H251.999C252.828 120.239 253.499 119.567 253.499 118.739V83.5488Z" fill="#B2CAF2" stroke="#B2CAF2" stroke-width="3" stroke-linejoin="round"/>
<path d="M230.494 95.7154C229.666 95.7154 228.994 96.3869 228.994 97.2154V105.064C228.994 105.893 229.666 106.564 230.494 106.564H265.662C266.491 106.564 267.162 105.893 267.162 105.064V97.2154C267.162 96.3869 266.491 95.7154 265.662 95.7154H230.494Z" fill="#B2CAF2" stroke="#B2CAF2" stroke-width="3" stroke-linejoin="round"/>
<circle cx="248.265" cy="101.321" r="31.1073" stroke="#B2CAF2" stroke-width="4"/>
</g>
<ellipse cx="250.353" cy="442.569" rx="151.843" ry="12.0784" fill="#EFF5FF"/>
</svg>
